<svg width="9235" height="2672" viewBox="0 0 9235 2672" fill="none" xmlns="http://www.w3.org/2000/svg">
<circle cx="1991" cy="1278.79" r="1000" fill="white"/>
<circle cx="2548.86" cy="802.004" r="113.153" fill="#A86AED"/>
<circle cx="2255.15" cy="647.94" r="113.153" fill="#A86AED"/>
<circle cx="2307.46" cy="941.634" r="113.153" fill="#A86AED"/>
<path d="M1515.3 513.363C1432.72 509.208 1350.3 502.219 1268.2 492.41L1269.83 498.082C1287.49 559.75 1301.97 598.334 1312.27 621.844C1324.48 649.694 1348.65 670.314 1379.3 676.632C1423.69 685.768 1506.34 692.247 1623.76 658.603C1741.19 624.96 1807.87 575.699 1840.68 544.422C1863.34 522.851 1872.95 492.554 1868.53 462.471C1864.82 437.071 1856.67 396.677 1839 335.009L1837.37 329.318C1772.92 381.115 1706.71 430.685 1638.86 477.94C1602.73 503.11 1559.27 515.583 1515.3 513.363Z" fill="black"/>
<mask id="path-6-inside-1_40_842" fill="white">
<path d="M1411.56 122.224C1436.57 104.782 1466.68 96.1567 1497.13 97.7063C1539.84 99.8485 1619.25 105.259 1736.76 118.909C1821.35 128.761 1881.93 137.78 1922.98 144.73C1949.74 149.254 1969.6 167.583 1976.36 191.174C1983.12 214.766 1975.98 240.833 1955.66 258.846C1924.53 286.453 1877.92 326.206 1811.38 379.357C1718.93 453.164 1654.43 499.804 1619.33 524.216C1594.32 541.658 1564.21 550.283 1533.76 548.734C1491.06 546.611 1411.65 541.201 1294.14 527.551C1262.34 523.872 1230.59 519.865 1198.88 515.531L1288.69 829.01C1310.31 830.362 1330.75 839.302 1346.41 854.253C1362.08 869.205 1371.96 889.207 1374.32 910.734C1376.68 932.261 1371.36 953.929 1359.31 971.918C1347.25 989.907 1329.23 1003.06 1308.42 1009.06C1287.58 1015.05 1265.29 1013.48 1245.5 1004.61C1225.7 995.752 1209.68 980.174 1200.27 960.636C1190.86 941.098 1188.66 918.861 1194.07 897.859C1199.48 876.857 1212.14 858.444 1229.81 845.88L1132.36 505.747C1123.55 504.349 1115.41 503.008 1107.93 501.724C1081.15 497.206 1061.29 478.877 1054.53 455.285C1047.77 431.694 1054.92 405.627 1075.24 387.613C1106.36 359.987 1152.98 320.253 1219.54 267.097C1311.97 193.296 1376.47 146.656 1411.59 122.238"/>
</mask>
<path d="M1411.56 122.224C1436.57 104.782 1466.68 96.1567 1497.13 97.7063C1539.84 99.8485 1619.25 105.259 1736.76 118.909C1821.35 128.761 1881.93 137.78 1922.98 144.73C1949.74 149.254 1969.6 167.583 1976.36 191.174C1983.12 214.766 1975.98 240.833 1955.66 258.846C1924.53 286.453 1877.92 326.206 1811.38 379.357C1718.93 453.164 1654.43 499.804 1619.33 524.216C1594.32 541.658 1564.21 550.283 1533.76 548.734C1491.06 546.611 1411.65 541.201 1294.14 527.551C1262.34 523.872 1230.59 519.865 1198.88 515.531L1288.69 829.01C1310.31 830.362 1330.75 839.302 1346.41 854.253C1362.08 869.205 1371.96 889.207 1374.32 910.734C1376.68 932.261 1371.36 953.929 1359.31 971.918C1347.25 989.907 1329.23 1003.06 1308.42 1009.06C1287.58 1015.05 1265.29 1013.48 1245.5 1004.61C1225.7 995.752 1209.68 980.174 1200.27 960.636C1190.86 941.098 1188.66 918.861 1194.07 897.859C1199.48 876.857 1212.14 858.444 1229.81 845.88L1132.36 505.747C1123.55 504.349 1115.41 503.008 1107.93 501.724C1081.15 497.206 1061.29 478.877 1054.53 455.285C1047.77 431.694 1054.92 405.627 1075.24 387.613C1106.36 359.987 1152.98 320.253 1219.54 267.097C1311.97 193.296 1376.47 146.656 1411.59 122.238" fill="black"/>
<path d="M1411.5 122.141C1411.46 122.173 1411.45 122.235 1411.48 122.281C1411.51 122.326 1411.57 122.337 1411.62 122.306L1411.56 122.224L1411.5 122.141ZM1497.13 97.7063L1497.13 97.8062L1497.13 97.8062L1497.13 97.7063ZM1736.76 118.909L1736.77 118.81L1736.77 118.81L1736.76 118.909ZM1922.98 144.73L1922.96 144.829L1922.96 144.829L1922.98 144.73ZM1955.66 258.846L1955.59 258.771L1955.59 258.771L1955.66 258.846ZM1811.38 379.357L1811.44 379.435L1811.44 379.435L1811.38 379.357ZM1619.33 524.216L1619.27 524.134L1619.27 524.134L1619.33 524.216ZM1533.76 548.734L1533.76 548.634L1533.76 548.634L1533.76 548.734ZM1294.14 527.551L1294.15 527.451L1294.15 527.451L1294.14 527.551ZM1198.88 515.531L1198.89 515.432L1198.74 515.411L1198.78 515.558L1198.88 515.531ZM1288.69 829.01L1288.6 829.038L1288.62 829.105L1288.69 829.11L1288.69 829.01ZM1308.42 1009.06L1308.45 1009.16L1308.45 1009.16L1308.42 1009.06ZM1229.81 845.88L1229.87 845.961L1229.93 845.92L1229.91 845.852L1229.81 845.88ZM1132.36 505.747L1132.46 505.719L1132.44 505.658L1132.38 505.648L1132.36 505.747ZM1107.93 501.724L1107.95 501.625L1107.95 501.625L1107.93 501.724ZM1075.24 387.613L1075.31 387.688L1075.31 387.688L1075.24 387.613ZM1219.54 267.097L1219.47 267.019L1219.47 267.019L1219.54 267.097ZM1411.64 122.32C1411.69 122.288 1411.7 122.226 1411.67 122.18C1411.64 122.135 1411.57 122.124 1411.53 122.155L1411.59 122.238L1411.64 122.32ZM1411.56 122.224L1411.62 122.306C1436.61 104.877 1466.7 96.2577 1497.13 97.8062L1497.13 97.7063L1497.14 97.6065C1466.66 96.0557 1436.53 104.687 1411.5 122.141L1411.56 122.224ZM1497.13 97.7063L1497.13 97.8062C1539.83 99.9482 1619.24 105.359 1736.75 119.008L1736.76 118.909L1736.77 118.81C1619.26 105.159 1539.85 99.7487 1497.14 97.6065L1497.13 97.7063ZM1736.76 118.909L1736.75 119.008C1821.34 128.86 1881.92 137.879 1922.96 144.829L1922.98 144.73L1923 144.632C1881.95 137.681 1821.36 128.662 1736.77 118.81L1736.76 118.909ZM1922.98 144.73L1922.96 144.829C1949.69 149.346 1969.52 167.648 1976.27 191.202L1976.36 191.174L1976.46 191.147C1969.69 167.518 1949.8 149.162 1923 144.632L1922.98 144.73ZM1976.36 191.174L1976.27 191.202C1983.02 214.756 1975.89 240.783 1955.59 258.771L1955.66 258.846L1955.72 258.921C1976.07 240.882 1983.23 214.776 1976.46 191.147L1976.36 191.174ZM1955.66 258.846L1955.59 258.771C1924.46 286.377 1877.85 326.129 1811.32 379.279L1811.38 379.357L1811.44 379.435C1877.98 326.284 1924.59 286.529 1955.72 258.921L1955.66 258.846ZM1811.38 379.357L1811.32 379.279C1718.86 453.084 1654.37 499.723 1619.27 524.134L1619.33 524.216L1619.39 524.299C1654.49 499.884 1718.99 453.243 1811.44 379.435L1811.38 379.357ZM1619.33 524.216L1619.27 524.134C1594.28 541.563 1564.2 550.182 1533.76 548.634L1533.76 548.734L1533.75 548.834C1564.23 550.384 1594.36 541.753 1619.39 524.299L1619.33 524.216ZM1533.76 548.734L1533.76 548.634C1491.06 546.511 1411.66 541.101 1294.15 527.451L1294.14 527.551L1294.12 527.65C1411.64 541.3 1491.05 546.711 1533.75 548.834L1533.76 548.734ZM1294.14 527.551L1294.15 527.451C1262.36 523.772 1230.6 519.765 1198.89 515.432L1198.88 515.531L1198.87 515.63C1230.58 519.964 1262.33 523.971 1294.12 527.65L1294.14 527.551ZM1198.88 515.531L1198.78 515.558L1288.6 829.038L1288.69 829.01L1288.79 828.982L1198.98 515.503L1198.88 515.531ZM1288.69 829.01L1288.69 829.11C1310.28 830.46 1330.7 839.391 1346.35 854.326L1346.41 854.253L1346.48 854.181C1330.8 839.214 1310.34 830.264 1288.7 828.91L1288.69 829.01ZM1346.41 854.253L1346.35 854.326C1361.99 869.261 1371.87 889.242 1374.22 910.745L1374.32 910.734L1374.42 910.723C1372.06 889.173 1362.17 869.149 1346.48 854.181L1346.41 854.253ZM1374.32 910.734L1374.22 910.745C1376.58 932.248 1371.27 953.893 1359.22 971.862L1359.31 971.918L1359.39 971.973C1371.46 953.965 1376.78 932.273 1374.42 910.723L1374.32 910.734ZM1359.31 971.918L1359.22 971.862C1347.18 989.832 1329.18 1002.97 1308.4 1008.97L1308.42 1009.06L1308.45 1009.16C1329.28 1003.15 1347.32 989.982 1359.39 971.973L1359.31 971.918ZM1308.42 1009.06L1308.4 1008.97C1287.58 1014.95 1265.31 1013.38 1245.54 1004.52L1245.5 1004.61L1245.46 1004.71C1265.27 1013.58 1287.59 1015.16 1308.45 1009.16L1308.42 1009.06ZM1245.5 1004.61L1245.54 1004.52C1225.77 995.671 1209.76 980.109 1200.36 960.592L1200.27 960.636L1200.18 960.679C1209.6 980.238 1225.64 995.834 1245.46 1004.71L1245.5 1004.61ZM1200.27 960.636L1200.36 960.592C1190.96 941.076 1188.77 918.863 1194.17 897.884L1194.07 897.859L1193.97 897.834C1188.56 918.858 1190.76 941.12 1200.18 960.679L1200.27 960.636ZM1194.07 897.859L1194.17 897.884C1199.57 876.904 1212.21 858.512 1229.87 845.961L1229.81 845.88L1229.76 845.798C1212.06 858.376 1199.39 876.809 1193.97 897.834L1194.07 897.859ZM1229.81 845.88L1229.91 845.852L1132.46 505.719L1132.36 505.747L1132.27 505.775L1229.72 845.907L1229.81 845.88ZM1132.36 505.747L1132.38 505.648C1123.57 504.251 1115.43 502.91 1107.95 501.625L1107.93 501.724L1107.92 501.822C1115.39 503.107 1123.54 504.448 1132.35 505.846L1132.36 505.747ZM1107.93 501.724L1107.95 501.625C1081.21 497.113 1061.38 478.811 1054.63 455.258L1054.53 455.285L1054.44 455.313C1061.21 478.942 1081.1 497.298 1107.92 501.822L1107.93 501.724ZM1054.53 455.285L1054.63 455.258C1047.88 431.704 1055.01 405.677 1075.31 387.688L1075.24 387.613L1075.17 387.539C1054.82 405.577 1047.67 431.683 1054.44 455.313L1054.53 455.285ZM1075.24 387.613L1075.31 387.688C1106.43 360.063 1153.04 320.331 1219.6 267.175L1219.54 267.097L1219.47 267.019C1152.91 320.176 1106.3 359.911 1075.17 387.539L1075.24 387.613ZM1219.54 267.097L1219.6 267.175C1312.03 193.375 1376.53 146.737 1411.64 122.32L1411.59 122.238L1411.53 122.155C1376.41 146.575 1311.91 193.216 1219.47 267.019L1219.54 267.097Z" fill="white" mask="url(#path-6-inside-1_40_842)"/>
<path d="M1636.85 1207.45C1732.76 1207.45 1810.66 1300.78 1810.66 1416.12C1810.66 1531.46 1732.76 1624.79 1636.85 1624.79C1540.93 1624.79 1463.04 1531.46 1463.04 1416.12C1463.04 1300.78 1540.93 1207.45 1636.85 1207.45Z" fill="black" stroke="white"/>
<circle cx="1703.01" cy="1346.68" r="55.2794" fill="white" stroke="white"/>
<path d="M2356.75 1224.24C2452.68 1224.24 2530.56 1314.47 2530.56 1425.94C2530.56 1537.41 2452.68 1627.64 2356.75 1627.64C2260.83 1627.64 2182.94 1537.41 2182.94 1425.94C2182.94 1314.47 2260.83 1224.24 2356.75 1224.24Z" fill="black" stroke="black"/>
<circle cx="2422.92" cy="1346.68" r="55.7794" fill="white"/>
<path d="M668.276 1595.99L703.769 1741.73L668.276 1595.99ZM804.729 1619.31L899.202 1502.8L804.729 1619.31ZM864.049 1765.29L1005.02 1714.02L864.049 1765.29ZM935.762 1852.25L838.698 1966.61L935.762 1852.25ZM1061.95 1863.75L1070.44 2013.51L1081.35 2012.89L1092.05 2010.7L1061.95 1863.75ZM1158.88 1822.19L1063.13 1706.73L1062.39 1707.34L1061.65 1707.97L1158.88 1822.19ZM1271.38 1925.33C1341.35 1880.97 1362.1 1788.29 1317.74 1718.33C1273.38 1648.37 1180.7 1627.61 1110.74 1671.97L1191.06 1798.65L1271.38 1925.33ZM705.035 1589.71L845.57 1642.15C831.764 1679.15 807.497 1700 796.414 1708.44C783.854 1718.01 772.533 1723.41 766.488 1726.04C754.226 1731.39 744.297 1733.62 740.354 1734.45C731.647 1736.27 723.206 1737.06 714.259 1736.86C710.006 1736.77 700.271 1736.37 687.831 1733.55C684.479 1732.8 640.184 1724.48 606.246 1682.52C584.168 1655.23 569.923 1617.47 573.689 1575.49C577.027 1538.29 593.219 1512.3 603.09 1499.26C621.107 1475.45 641.455 1464.09 644.093 1462.56C657.891 1454.51 661.62 1456.02 624.829 1465.92C595.064 1473.93 546.955 1485.42 471.637 1501.29L502.561 1648.07L533.486 1794.85C611.357 1778.44 665.467 1765.66 702.783 1755.61C721.389 1750.61 737.207 1745.91 750.427 1741.4C761.363 1737.66 778.599 1731.4 795.179 1721.73C800.976 1718.36 823.277 1705.43 842.288 1680.32C852.655 1666.62 869.104 1640.04 872.489 1602.3C876.303 1559.79 861.898 1521.55 839.481 1493.84C819.925 1469.67 797.768 1457.43 785.699 1451.78C772.623 1445.66 761.181 1442.57 753.973 1440.94C739.679 1437.71 727.625 1437.08 720.837 1436.93C706.818 1436.63 692.435 1437.97 678.898 1440.81C672.539 1442.14 660.473 1444.99 646.598 1451.04C639.747 1454.03 627.751 1459.8 614.678 1469.75C603.082 1478.58 578.464 1499.85 564.5 1537.27L705.035 1589.71ZM502.561 1648.07L471.637 1501.29C433.649 1509.29 408.109 1514.43 392.195 1517.4C384 1518.93 379.876 1519.59 378.484 1519.79C377.526 1519.93 379.566 1519.6 383.172 1519.33C384.835 1519.2 389.296 1518.88 395.219 1518.97C396.523 1518.99 416.731 1518.74 440.589 1526.86C450.66 1530.29 486.976 1543.33 514.363 1581.89C551.403 1634.03 546.051 1692.73 528.383 1731.21C514.818 1760.75 495.251 1777.74 489.198 1782.87C480.799 1789.98 473.415 1794.62 469.633 1796.88C461.919 1801.51 455.625 1804.28 453.652 1805.14C450.91 1806.34 448.841 1807.13 447.94 1807.47C445.388 1808.42 445.288 1808.34 450.244 1806.86C458.646 1804.35 472.442 1800.53 490.577 1795.7C562.506 1776.55 679.252 1747.7 703.769 1741.73L668.276 1595.99L632.784 1450.25C607.837 1456.32 488.537 1485.79 413.38 1505.8C394.743 1510.76 377.328 1515.54 364.383 1519.41C358.667 1521.11 350.36 1523.66 342.606 1526.57C341.319 1527.05 328.839 1531.51 315.43 1539.55C311.391 1541.97 303.799 1546.75 295.246 1554C289.039 1559.26 269.369 1576.37 255.755 1606.01C238.038 1644.59 232.691 1703.39 269.789 1755.62C297.234 1794.26 333.663 1807.37 343.902 1810.85C368.096 1819.09 388.862 1818.91 390.953 1818.94C397.665 1819.03 403.143 1818.67 406.061 1818.45C412.178 1817.98 417.682 1817.24 421.209 1816.74C428.785 1815.64 437.71 1814.08 447.184 1812.32C466.606 1808.69 494.88 1802.98 533.486 1794.85L502.561 1648.07ZM668.276 1595.99L703.769 1741.73C713.017 1739.47 718.222 1739.07 720.184 1739C721.933 1738.95 720.936 1739.16 718.103 1738.5C716.774 1738.19 715.339 1737.76 713.884 1737.2C712.436 1736.65 711.214 1736.07 710.275 1735.56C708.426 1734.57 708.23 1734.17 710.255 1735.82L804.729 1619.31L899.202 1502.8C873.48 1481.94 836.778 1458.12 786.177 1446.33C736.43 1434.74 685.103 1437.5 632.784 1450.25L668.276 1595.99ZM804.729 1619.31L710.255 1735.82C701.182 1728.46 697.053 1721.37 696.089 1719.55C695.439 1718.32 696.606 1720.22 698.985 1728.47C701.594 1737.53 703.505 1746.12 707.404 1762.33C710.682 1775.95 715.656 1796.13 723.081 1816.55L864.049 1765.29L1005.02 1714.02C1003.89 1710.92 1002.22 1705.19 999.08 1692.15C996.564 1681.69 992.287 1662.87 987.253 1645.4C977.661 1612.11 956.646 1549.37 899.202 1502.8L804.729 1619.31ZM864.049 1765.29L723.081 1816.55C741.542 1867.32 767.642 1904.64 797.076 1932.97C810.749 1946.14 823.426 1955.68 831.524 1961.59C842.92 1969.9 839.789 1967.54 838.698 1966.61L935.762 1852.25L1032.83 1737.89C1026.49 1732.51 1020.64 1728.16 1016.97 1725.47C1015.06 1724.08 1013.2 1722.74 1011.87 1721.78C1010.38 1720.71 1009.35 1719.97 1008.36 1719.25C1004.64 1716.53 1004.49 1716.22 1005.14 1716.85C1006.08 1717.75 1006.94 1718.82 1007.38 1719.49C1007.73 1720.04 1006.69 1718.63 1005.02 1714.02L864.049 1765.29ZM935.762 1852.25L838.698 1966.61C863.958 1988.05 890.365 1997.21 902.587 2001.01C917.401 2005.61 931.412 2008.21 942.165 2009.8C963.784 2013.01 985.899 2014.11 1003.02 2014.52C1020.91 2014.94 1037.5 2014.69 1049.36 2014.35C1055.38 2014.18 1060.39 2013.99 1064.01 2013.83C1065.82 2013.75 1067.29 2013.68 1068.38 2013.62C1068.92 2013.59 1069.37 2013.57 1069.72 2013.55C1069.89 2013.54 1070.04 2013.53 1070.16 2013.53C1070.22 2013.52 1070.27 2013.52 1070.32 2013.52C1070.35 2013.52 1070.37 2013.52 1070.39 2013.51C1070.4 2013.51 1070.41 2013.51 1070.42 2013.51C1070.43 2013.51 1070.44 2013.51 1061.95 1863.75C1053.46 1713.99 1053.47 1713.99 1053.48 1713.99C1053.48 1713.99 1053.5 1713.99 1053.5 1713.99C1053.52 1713.99 1053.53 1713.99 1053.54 1713.99C1053.56 1713.99 1053.58 1713.99 1053.59 1713.99C1053.61 1713.98 1053.6 1713.98 1053.58 1713.99C1053.52 1713.99 1053.37 1714 1053.14 1714.01C1052.67 1714.03 1051.85 1714.07 1050.74 1714.12C1048.5 1714.22 1045.11 1714.36 1040.9 1714.47C1032.32 1714.72 1021.23 1714.87 1010.15 1714.6C998.296 1714.32 990.152 1713.64 986.179 1713.05C984.135 1712.75 986.517 1712.94 991.613 1714.52C994.117 1715.3 1012.72 1720.82 1032.83 1737.89L935.762 1852.25ZM1061.95 1863.75C1092.05 2010.7 1092.07 2010.7 1092.1 2010.69C1092.11 2010.69 1092.13 2010.68 1092.15 2010.68C1092.18 2010.67 1092.21 2010.67 1092.25 2010.66C1092.32 2010.64 1092.4 2010.63 1092.48 2010.61C1092.64 2010.58 1092.81 2010.54 1093 2010.5C1093.39 2010.42 1093.84 2010.33 1094.35 2010.22C1095.37 2010 1096.64 2009.72 1098.14 2009.37C1101.13 2008.69 1105.07 2007.75 1109.75 2006.55C1119 2004.17 1131.73 2000.6 1146.14 1995.7C1170.69 1987.34 1217.07 1969.65 1256.1 1936.42L1158.88 1822.19L1061.65 1707.97C1067.11 1703.33 1065.02 1706.41 1049.5 1711.69C1043.88 1713.6 1038.68 1715.06 1035 1716.01C1033.22 1716.47 1031.94 1716.77 1031.34 1716.9C1031.04 1716.97 1030.92 1717 1030.99 1716.98C1031.03 1716.97 1031.12 1716.95 1031.26 1716.92C1031.33 1716.91 1031.42 1716.89 1031.52 1716.87C1031.57 1716.86 1031.62 1716.85 1031.67 1716.84C1031.7 1716.83 1031.73 1716.83 1031.76 1716.82C1031.78 1716.82 1031.8 1716.81 1031.81 1716.81C1031.83 1716.81 1031.85 1716.8 1061.95 1863.75ZM1158.88 1822.19L1254.62 1937.66C1260.2 1933.04 1262.5 1931.29 1263.75 1930.38C1264.87 1929.57 1266.5 1928.43 1271.38 1925.33L1191.06 1798.65L1110.74 1671.97C1093.03 1683.2 1081.47 1691.52 1063.13 1706.73L1158.88 1822.19Z" fill="white"/>
<path d="M3313.84 1595.99L3278.35 1741.73L3313.84 1595.99ZM3177.39 1619.31L3082.92 1502.8L3177.39 1619.31ZM3118.07 1765.29L2977.1 1714.02L3118.07 1765.29ZM3046.36 1852.25L3143.42 1966.61L3046.36 1852.25ZM2920.17 1863.75L2911.68 2013.51L2900.77 2012.89L2890.07 2010.7L2920.17 1863.75ZM2823.24 1822.19L2918.99 1706.73L2919.73 1707.34L2920.47 1707.97L2823.24 1822.19ZM2710.74 1925.33C2640.77 1880.97 2620.02 1788.29 2664.38 1718.33C2708.74 1648.37 2801.42 1627.61 2871.38 1671.97L2791.06 1798.65L2710.74 1925.33ZM3277.09 1589.71L3136.55 1642.15C3150.36 1679.15 3174.62 1700 3185.71 1708.44C3198.27 1718.01 3209.59 1723.41 3215.63 1726.04C3227.9 1731.39 3237.82 1733.62 3241.77 1734.45C3250.47 1736.27 3258.92 1737.06 3267.86 1736.86C3272.11 1736.77 3281.85 1736.37 3294.29 1733.55C3297.64 1732.8 3341.94 1724.48 3375.88 1682.52C3397.95 1655.23 3412.2 1617.47 3408.43 1575.49C3405.09 1538.29 3388.9 1512.3 3379.03 1499.26C3361.01 1475.45 3340.67 1464.09 3338.03 1462.56C3324.23 1454.51 3320.5 1456.02 3357.29 1465.92C3387.06 1473.93 3435.17 1485.42 3510.48 1501.29L3479.56 1648.07L3448.64 1794.85C3370.76 1778.44 3316.65 1765.66 3279.34 1755.61C3260.73 1750.61 3244.91 1745.91 3231.69 1741.4C3220.76 1737.66 3203.52 1731.4 3186.94 1721.73C3181.14 1718.36 3158.84 1705.43 3139.83 1680.32C3129.47 1666.62 3113.02 1640.04 3109.63 1602.3C3105.82 1559.79 3120.22 1521.55 3142.64 1493.84C3162.2 1469.67 3184.35 1457.43 3196.42 1451.78C3209.5 1445.66 3220.94 1442.57 3228.15 1440.94C3242.44 1437.71 3254.5 1437.08 3261.28 1436.93C3275.3 1436.63 3289.69 1437.97 3303.22 1440.81C3309.58 1442.14 3321.65 1444.99 3335.52 1451.04C3342.37 1454.03 3354.37 1459.8 3367.44 1469.75C3379.04 1478.58 3403.66 1499.85 3417.62 1537.27L3277.09 1589.71ZM3479.56 1648.07L3510.48 1501.29C3548.47 1509.29 3574.01 1514.43 3589.93 1517.4C3598.12 1518.93 3602.25 1519.59 3603.64 1519.79C3604.59 1519.93 3602.55 1519.6 3598.95 1519.33C3597.29 1519.2 3592.83 1518.88 3586.9 1518.97C3585.6 1518.99 3565.39 1518.74 3541.53 1526.86C3531.46 1530.29 3495.15 1543.33 3467.76 1581.89C3430.72 1634.03 3436.07 1692.73 3453.74 1731.21C3467.3 1760.75 3486.87 1777.74 3492.92 1782.87C3501.32 1789.98 3508.71 1794.62 3512.49 1796.88C3520.2 1801.51 3526.5 1804.28 3528.47 1805.14C3531.21 1806.34 3533.28 1807.13 3534.18 1807.47C3536.73 1808.42 3536.83 1808.34 3531.88 1806.86C3523.47 1804.35 3509.68 1800.53 3491.54 1795.7C3419.62 1776.55 3302.87 1747.7 3278.35 1741.73L3313.84 1595.99L3349.34 1450.25C3374.28 1456.32 3493.58 1485.79 3568.74 1505.8C3587.38 1510.76 3604.79 1515.54 3617.74 1519.41C3623.45 1521.11 3631.76 1523.66 3639.51 1526.57C3640.8 1527.05 3653.28 1531.51 3666.69 1539.55C3670.73 1541.97 3678.32 1546.75 3686.88 1554C3693.08 1559.26 3712.75 1576.37 3726.37 1606.01C3744.08 1644.59 3749.43 1703.39 3712.33 1755.62C3684.89 1794.26 3648.46 1807.37 3638.22 1810.85C3614.02 1819.09 3593.26 1818.91 3591.17 1818.94C3584.46 1819.03 3578.98 1818.67 3576.06 1818.45C3569.94 1817.98 3564.44 1817.24 3560.91 1816.74C3553.34 1815.64 3544.41 1814.08 3534.94 1812.32C3515.51 1808.69 3487.24 1802.98 3448.64 1794.85L3479.56 1648.07ZM3313.84 1595.99L3278.35 1741.73C3269.1 1739.47 3263.9 1739.07 3261.94 1739C3260.19 1738.95 3261.19 1739.16 3264.02 1738.5C3265.35 1738.19 3266.78 1737.76 3268.24 1737.2C3269.69 1736.65 3270.91 1736.07 3271.85 1735.56C3273.69 1734.57 3273.89 1734.17 3271.87 1735.82L3177.39 1619.31L3082.92 1502.8C3108.64 1481.94 3145.34 1458.12 3195.94 1446.33C3245.69 1434.74 3297.02 1437.5 3349.34 1450.25L3313.84 1595.99ZM3177.39 1619.31L3271.87 1735.82C3280.94 1728.46 3285.07 1721.37 3286.03 1719.55C3286.68 1718.32 3285.52 1720.22 3283.14 1728.47C3280.53 1737.53 3278.62 1746.12 3274.72 1762.33C3271.44 1775.95 3266.47 1796.13 3259.04 1816.55L3118.07 1765.29L2977.1 1714.02C2978.23 1710.92 2979.9 1705.19 2983.04 1692.15C2985.56 1681.69 2989.83 1662.87 2994.87 1645.4C3004.46 1612.11 3025.48 1549.37 3082.92 1502.8L3177.39 1619.31ZM3118.07 1765.29L3259.04 1816.55C3240.58 1867.32 3214.48 1904.64 3185.05 1932.97C3171.37 1946.14 3158.69 1955.68 3150.6 1961.59C3139.2 1969.9 3142.33 1967.54 3143.42 1966.61L3046.36 1852.25L2949.3 1737.89C2955.63 1732.51 2961.48 1728.16 2965.15 1725.47C2967.06 1724.08 2968.93 1722.74 2970.26 1721.78C2971.74 1720.71 2972.77 1719.97 2973.76 1719.25C2977.48 1716.53 2977.63 1716.22 2976.98 1716.85C2976.05 1717.75 2975.18 1718.82 2974.74 1719.49C2974.39 1720.04 2975.43 1718.63 2977.1 1714.02L3118.07 1765.29ZM3046.36 1852.25L3143.42 1966.61C3118.16 1988.05 3091.76 1997.21 3079.53 2001.01C3064.72 2005.61 3050.71 2008.21 3039.96 2009.8C3018.34 2013.01 2996.22 2014.11 2979.1 2014.52C2961.21 2014.94 2944.62 2014.69 2932.76 2014.35C2926.74 2014.18 2921.73 2013.99 2918.11 2013.83C2916.3 2013.75 2914.83 2013.68 2913.74 2013.62C2913.2 2013.59 2912.75 2013.57 2912.4 2013.55C2912.23 2013.54 2912.08 2013.53 2911.96 2013.53C2911.9 2013.52 2911.85 2013.52 2911.8 2013.52C2911.78 2013.52 2911.75 2013.52 2911.73 2013.51C2911.72 2013.51 2911.71 2013.51 2911.7 2013.51C2911.69 2013.51 2911.68 2013.51 2920.17 1863.75C2928.66 1713.99 2928.65 1713.99 2928.64 1713.99C2928.64 1713.99 2928.62 1713.99 2928.62 1713.99C2928.6 1713.99 2928.59 1713.99 2928.58 1713.99C2928.56 1713.99 2928.54 1713.99 2928.53 1713.99C2928.51 1713.98 2928.52 1713.98 2928.54 1713.99C2928.6 1713.99 2928.75 1714 2928.98 1714.01C2929.45 1714.03 2930.27 1714.07 2931.38 1714.12C2933.62 1714.22 2937.02 1714.36 2941.22 1714.47C2949.8 1714.72 2960.89 1714.87 2971.97 1714.6C2983.82 1714.32 2991.97 1713.64 2995.94 1713.05C2997.99 1712.75 2995.6 1712.94 2990.51 1714.52C2988 1715.3 2969.4 1720.82 2949.3 1737.89L3046.36 1852.25ZM2920.17 1863.75C2890.07 2010.7 2890.05 2010.7 2890.02 2010.69C2890.02 2010.69 2889.99 2010.68 2889.97 2010.68C2889.94 2010.67 2889.91 2010.67 2889.87 2010.66C2889.8 2010.64 2889.72 2010.63 2889.64 2010.61C2889.49 2010.58 2889.31 2010.54 2889.12 2010.5C2888.73 2010.42 2888.29 2010.33 2887.77 2010.22C2886.75 2010 2885.48 2009.72 2883.98 2009.37C2880.99 2008.69 2877.05 2007.75 2872.37 2006.55C2863.12 2004.17 2850.39 2000.6 2835.98 1995.7C2811.43 1987.34 2765.06 1969.65 2726.02 1936.42L2823.24 1822.19L2920.47 1707.97C2915.01 1703.33 2917.1 1706.41 2932.62 1711.69C2938.24 1713.6 2943.44 1715.06 2947.12 1716.01C2948.91 1716.47 2950.18 1716.77 2950.78 1716.9C2951.08 1716.97 2951.2 1717 2951.13 1716.98C2951.09 1716.97 2951 1716.95 2950.86 1716.92C2950.79 1716.91 2950.7 1716.89 2950.6 1716.87C2950.56 1716.86 2950.5 1716.85 2950.45 1716.84C2950.42 1716.83 2950.39 1716.83 2950.36 1716.82C2950.35 1716.82 2950.32 1716.81 2950.32 1716.81C2950.29 1716.81 2950.27 1716.8 2920.17 1863.75ZM2823.24 1822.19L2727.5 1937.66C2721.92 1933.04 2719.62 1931.29 2718.37 1930.38C2717.25 1929.57 2715.62 1928.43 2710.74 1925.33L2791.06 1798.65L2871.38 1671.97C2889.09 1683.2 2900.66 1691.52 2918.99 1706.73L2823.24 1822.19Z" fill="white"/>
<path d="M996.765 2365.06C1009.06 2364.79 1039.42 2365.11 1062.93 2369.18C1079.78 2372.11 1097.4 2373.24 1127.96 2370.46C1190.57 2364.78 1287.34 2344.77 1305.99 2336.41C1326.45 2327.24 1360.07 2309.04 1378.28 2293.22C1399 2275.21 1427.7 2249.35 1429.83 2237.08C1433.49 2215.98 1449.15 2203.43 1459.15 2192.94C1474.27 2177.08 1489.39 2154.43 1502.61 2142.53C1514.42 2131.89 1537.5 2120.04 1562.51 2112.36C1583.29 2105.98 1602.77 2096.93 1635.37 2089.81C1664.88 2080.54 1698.73 2075.86 1706.98 2075.83C1711.11 2075.6 1715.1 2074.95 1719.21 2074.27" stroke="white" stroke-width="300" stroke-linecap="round"/>
<path d="M2985.95 2365.06C2973.65 2364.79 2943.29 2365.11 2919.78 2369.18C2902.94 2372.11 2885.31 2373.24 2854.75 2370.46C2792.15 2364.78 2695.37 2344.77 2676.72 2336.41C2656.26 2327.24 2622.64 2309.04 2604.43 2293.22C2583.72 2275.21 2555.01 2249.35 2552.88 2237.08C2549.23 2215.98 2533.56 2203.43 2523.56 2192.94C2508.44 2177.08 2493.32 2154.43 2480.1 2142.53C2468.29 2131.89 2445.22 2120.04 2420.2 2112.36C2399.42 2105.98 2379.94 2096.93 2347.34 2089.81C2317.83 2080.54 2283.98 2075.86 2275.73 2075.83C2271.6 2075.6 2267.61 2074.95 2263.5 2074.27" stroke="white" stroke-width="300" stroke-linecap="round"/>
<path d="M4262.6 2044V1427.2C4262.6 1320 4289.4 1236.8 4343 1177.6C4397.4 1118.4 4471 1088.8 4563.8 1088.8C4663.8 1088.8 4741 1118.8 4795.4 1178.8C4849.8 1238.8 4877 1323.6 4877 1433.2C4877 1502.8 4865.4 1562.8 4842.2 1613.2C4819 1662.8 4786.6 1701.2 4745 1728.4C4704.2 1754.8 4657 1768 4603.4 1768C4573 1768 4544.2 1764 4517 1756C4490.6 1748 4467 1736.8 4446.2 1722.4H4434.2C4436.6 1739.2 4438.6 1762.4 4440.2 1792C4442.6 1821.6 4443.8 1850.8 4443.8 1879.6V2044H4262.6ZM4567.4 1630C4605.8 1630 4636.2 1615.2 4658.6 1585.6C4681 1555.2 4692.2 1504.8 4692.2 1434.4C4692.2 1359.2 4680.6 1306 4657.4 1274.8C4635 1242.8 4603 1226.8 4561.4 1226.8C4483.8 1226.8 4445 1287.6 4445 1409.2V1576C4461 1592 4479.4 1605.2 4500.2 1615.6C4521.8 1625.2 4544.2 1630 4567.4 1630ZM4970.2 1420C4970.2 1351.2 4983 1290.8 5008.6 1238.8C5035 1186.8 5070.6 1146.8 5115.4 1118.8C5160.2 1090.8 5210.2 1076.8 5265.4 1076.8C5312.6 1076.8 5353.8 1086.4 5389 1105.6C5425 1124.8 5452.6 1150 5471.8 1181.2V1086.4H5677V1756H5471.8V1661.2C5451.8 1692.4 5423.8 1717.6 5387.8 1736.8C5352.6 1756 5311.4 1765.6 5264.2 1765.6C5209.8 1765.6 5160.2 1751.6 5115.4 1723.6C5070.6 1694.8 5035 1654.4 5008.6 1602.4C4983 1549.6 4970.2 1488.8 4970.2 1420ZM5471.8 1421.2C5471.8 1370 5457.4 1329.6 5428.6 1300C5400.6 1270.4 5366.2 1255.6 5325.4 1255.6C5284.6 1255.6 5249.8 1270.4 5221 1300C5193 1328.8 5179 1368.8 5179 1420C5179 1471.2 5193 1512 5221 1542.4C5249.8 1572 5284.6 1586.8 5325.4 1586.8C5366.2 1586.8 5400.6 1572 5428.6 1542.4C5457.4 1512.8 5471.8 1472.4 5471.8 1421.2ZM5930.45 1016.8C5894.45 1016.8 5864.85 1006.4 5841.65 985.6C5819.25 964 5808.05 937.6 5808.05 906.4C5808.05 874.4 5819.25 848 5841.65 827.2C5864.85 805.6 5894.45 794.8 5930.45 794.8C5965.65 794.8 5994.45 805.6 6016.85 827.2C6040.05 848 6051.65 874.4 6051.65 906.4C6051.65 937.6 6040.05 964 6016.85 985.6C5994.45 1006.4 5965.65 1016.8 5930.45 1016.8ZM6032.45 1086.4V1756H5827.25V1086.4H6032.45ZM6142.16 1420C6142.16 1351.2 6154.96 1290.8 6180.56 1238.8C6206.96 1186.8 6242.56 1146.8 6287.36 1118.8C6332.16 1090.8 6382.16 1076.8 6437.36 1076.8C6481.36 1076.8 6521.36 1086 6557.36 1104.4C6594.16 1122.8 6622.96 1147.6 6643.76 1178.8V868H6848.96V1756H6643.76V1660C6624.56 1692 6596.96 1717.6 6560.96 1736.8C6525.76 1756 6484.56 1765.6 6437.36 1765.6C6382.16 1765.6 6332.16 1751.6 6287.36 1723.6C6242.56 1694.8 6206.96 1654.4 6180.56 1602.4C6154.96 1549.6 6142.16 1488.8 6142.16 1420ZM6643.76 1421.2C6643.76 1370 6629.36 1329.6 6600.56 1300C6572.56 1270.4 6538.16 1255.6 6497.36 1255.6C6456.56 1255.6 6421.76 1270.4 6392.96 1300C6364.96 1328.8 6350.96 1368.8 6350.96 1420C6350.96 1471.2 6364.96 1512 6392.96 1542.4C6421.76 1572 6456.56 1586.8 6497.36 1586.8C6538.16 1586.8 6572.56 1572 6600.56 1542.4C6629.36 1512.8 6643.76 1472.4 6643.76 1421.2ZM7630.41 1410.4C7630.41 1429.6 7629.21 1449.6 7626.81 1470.4H7162.41C7165.61 1512 7178.81 1544 7202.01 1566.4C7226.01 1588 7255.21 1598.8 7289.61 1598.8C7340.81 1598.8 7376.41 1577.2 7396.41 1534H7614.81C7603.61 1578 7583.21 1617.6 7553.61 1652.8C7524.81 1688 7488.41 1715.6 7444.41 1735.6C7400.41 1755.6 7351.21 1765.6 7296.81 1765.6C7231.21 1765.6 7172.81 1751.6 7121.61 1723.6C7070.41 1695.6 7030.41 1655.6 7001.61 1603.6C6972.81 1551.6 6958.41 1490.8 6958.41 1421.2C6958.41 1351.6 6972.41 1290.8 7000.41 1238.8C7029.21 1186.8 7069.21 1146.8 7120.41 1118.8C7171.61 1090.8 7230.41 1076.8 7296.81 1076.8C7361.61 1076.8 7419.21 1090.4 7469.61 1117.6C7520.01 1144.8 7559.21 1183.6 7587.21 1234C7616.01 1284.4 7630.41 1343.2 7630.41 1410.4ZM7420.41 1356.4C7420.41 1321.2 7408.41 1293.2 7384.41 1272.4C7360.41 1251.6 7330.41 1241.2 7294.41 1241.2C7260.01 1241.2 7230.81 1251.2 7206.81 1271.2C7183.61 1291.2 7169.21 1319.6 7163.61 1356.4H7420.41ZM7843.66 1016.8C7807.66 1016.8 7778.06 1006.4 7754.86 985.6C7732.46 964 7721.26 937.6 7721.26 906.4C7721.26 874.4 7732.46 848 7754.86 827.2C7778.06 805.6 7807.66 794.8 7843.66 794.8C7878.86 794.8 7907.66 805.6 7930.06 827.2C7953.26 848 7964.86 874.4 7964.86 906.4C7964.86 937.6 7953.26 964 7930.06 985.6C7907.66 1006.4 7878.86 1016.8 7843.66 1016.8ZM7945.66 1086.4V1756H7740.46V1086.4H7945.66ZM8055.37 1420C8055.37 1351.2 8068.17 1290.8 8093.77 1238.8C8120.17 1186.8 8155.77 1146.8 8200.57 1118.8C8245.37 1090.8 8295.37 1076.8 8350.57 1076.8C8397.77 1076.8 8438.97 1086.4 8474.17 1105.6C8510.17 1124.8 8537.77 1150 8556.97 1181.2V1086.4H8762.17V1756H8556.97V1661.2C8536.97 1692.4 8508.97 1717.6 8472.97 1736.8C8437.77 1756 8396.57 1765.6 8349.37 1765.6C8294.97 1765.6 8245.37 1751.6 8200.57 1723.6C8155.77 1694.8 8120.17 1654.4 8093.77 1602.4C8068.17 1549.6 8055.37 1488.8 8055.37 1420ZM8556.97 1421.2C8556.97 1370 8542.57 1329.6 8513.77 1300C8485.77 1270.4 8451.37 1255.6 8410.57 1255.6C8369.77 1255.6 8334.97 1270.4 8306.17 1300C8278.17 1328.8 8264.17 1368.8 8264.17 1420C8264.17 1471.2 8278.17 1512 8306.17 1542.4C8334.97 1572 8369.77 1586.8 8410.57 1586.8C8451.37 1586.8 8485.77 1572 8513.77 1542.4C8542.57 1512.8 8556.97 1472.4 8556.97 1421.2ZM9008.42 1765.6C8972.42 1765.6 8942.82 1755.2 8919.62 1734.4C8897.22 1712.8 8886.02 1686.4 8886.02 1655.2C8886.02 1623.2 8897.22 1596.4 8919.62 1574.8C8942.82 1553.2 8972.42 1542.4 9008.42 1542.4C9043.62 1542.4 9072.42 1553.2 9094.82 1574.8C9118.02 1596.4 9129.62 1623.2 9129.62 1655.2C9129.62 1686.4 9118.02 1712.8 9094.82 1734.4C9072.42 1755.2 9043.62 1765.6 9008.42 1765.6Z" fill="white"/>
</svg>
