<svg width="9235" height="2672" viewBox="0 0 9235 2672" fill="none" xmlns="http://www.w3.org/2000/svg">
<circle cx="1805" cy="1278.79" r="1000" fill="#9850E2"/>
<circle cx="2362.86" cy="802.004" r="113.153" fill="black"/>
<circle cx="2069.15" cy="647.94" r="113.153" fill="black"/>
<circle cx="2121.46" cy="941.634" r="113.153" fill="black"/>
<path d="M1329.3 513.362C1246.72 509.207 1164.3 502.218 1082.2 492.409L1083.83 498.081C1101.49 559.749 1115.97 598.333 1126.27 621.843C1138.48 649.693 1162.65 670.313 1193.3 676.631C1237.69 685.767 1320.34 692.246 1437.77 658.602C1555.19 624.959 1621.87 575.698 1654.68 544.421C1677.34 522.85 1686.95 492.553 1682.53 462.47C1678.83 437.07 1670.67 396.676 1653 335.008L1651.37 329.317C1586.92 381.114 1520.71 430.684 1452.86 477.939C1416.73 503.109 1373.27 515.582 1329.3 513.362Z" fill="black"/>
<mask id="path-6-inside-1_127_841" fill="white">
<path d="M1225.56 122.223C1250.57 104.781 1280.68 96.1562 1311.13 97.7058C1353.84 99.848 1433.25 105.258 1550.76 118.908C1635.35 128.76 1695.93 137.78 1736.98 144.73C1763.74 149.253 1783.6 167.583 1790.36 191.174C1797.12 214.765 1789.98 240.832 1769.66 258.846C1738.53 286.453 1691.92 326.206 1625.38 379.356C1532.93 453.163 1468.43 499.803 1433.33 524.216C1408.32 541.658 1378.21 550.283 1347.76 548.733C1305.06 546.611 1225.65 541.2 1108.14 527.55C1076.34 523.871 1044.59 519.864 1012.88 515.53L1102.69 829.009C1124.31 830.362 1144.75 839.302 1160.41 854.253C1176.08 869.204 1185.96 889.207 1188.32 910.733C1190.68 932.26 1185.36 953.928 1173.31 971.917C1161.25 989.906 1143.23 1003.06 1122.42 1009.06C1101.58 1015.05 1079.29 1013.48 1059.5 1004.61C1039.7 995.752 1023.68 980.173 1014.27 960.635C1004.86 941.097 1002.66 918.86 1008.07 897.858C1013.48 876.856 1026.14 858.444 1043.81 845.879L946.364 505.747C937.553 504.349 929.41 503.008 921.934 501.723C895.154 497.205 875.291 478.876 868.532 455.285C861.773 431.693 868.916 405.627 889.241 387.613C920.361 359.986 966.978 320.253 1033.54 267.097C1125.97 193.295 1190.47 146.656 1225.59 122.237"/>
</mask>
<path d="M1225.56 122.223C1250.57 104.781 1280.68 96.1562 1311.13 97.7058C1353.84 99.848 1433.25 105.258 1550.76 118.908C1635.35 128.76 1695.93 137.78 1736.98 144.73C1763.74 149.253 1783.6 167.583 1790.36 191.174C1797.12 214.765 1789.98 240.832 1769.66 258.846C1738.53 286.453 1691.92 326.206 1625.38 379.356C1532.93 453.163 1468.43 499.803 1433.33 524.216C1408.32 541.658 1378.21 550.283 1347.76 548.733C1305.06 546.611 1225.65 541.2 1108.14 527.55C1076.34 523.871 1044.59 519.864 1012.88 515.53L1102.69 829.009C1124.31 830.362 1144.75 839.302 1160.41 854.253C1176.08 869.204 1185.96 889.207 1188.32 910.733C1190.68 932.26 1185.36 953.928 1173.31 971.917C1161.25 989.906 1143.23 1003.06 1122.42 1009.06C1101.58 1015.05 1079.29 1013.48 1059.5 1004.61C1039.7 995.752 1023.68 980.173 1014.27 960.635C1004.86 941.097 1002.66 918.86 1008.07 897.858C1013.48 876.856 1026.14 858.444 1043.81 845.879L946.364 505.747C937.553 504.349 929.41 503.008 921.934 501.723C895.154 497.205 875.291 478.876 868.532 455.285C861.773 431.693 868.916 405.627 889.241 387.613C920.361 359.986 966.978 320.253 1033.54 267.097C1125.97 193.295 1190.47 146.656 1225.59 122.237" fill="black"/>
<path d="M1225.5 122.141C1225.46 122.173 1225.45 122.235 1225.48 122.28C1225.51 122.326 1225.57 122.337 1225.62 122.305L1225.56 122.223L1225.5 122.141ZM1311.13 97.7058L1311.13 97.8057L1311.13 97.8057L1311.13 97.7058ZM1550.76 118.908L1550.77 118.809L1550.77 118.809L1550.76 118.908ZM1736.98 144.73L1736.96 144.828L1736.96 144.828L1736.98 144.73ZM1769.66 258.846L1769.59 258.771L1769.59 258.771L1769.66 258.846ZM1625.38 379.356L1625.44 379.434L1625.44 379.434L1625.38 379.356ZM1433.33 524.216L1433.27 524.134L1433.27 524.134L1433.33 524.216ZM1347.76 548.733L1347.76 548.633L1347.76 548.633L1347.76 548.733ZM1108.14 527.55L1108.15 527.451L1108.15 527.451L1108.14 527.55ZM1012.88 515.53L1012.89 515.431L1012.74 515.41L1012.78 515.558L1012.88 515.53ZM1102.69 829.009L1102.6 829.037L1102.62 829.105L1102.69 829.109L1102.69 829.009ZM1122.42 1009.06L1122.45 1009.16L1122.45 1009.16L1122.42 1009.06ZM1043.81 845.879L1043.87 845.961L1043.93 845.92L1043.91 845.852L1043.81 845.879ZM946.364 505.747L946.46 505.719L946.442 505.658L946.379 505.648L946.364 505.747ZM921.934 501.723L921.951 501.625L921.951 501.625L921.934 501.723ZM889.241 387.613L889.307 387.688L889.307 387.688L889.241 387.613ZM1033.54 267.097L1033.47 267.019L1033.47 267.019L1033.54 267.097ZM1225.64 122.319C1225.69 122.288 1225.7 122.225 1225.67 122.18C1225.64 122.135 1225.57 122.123 1225.53 122.155L1225.59 122.237L1225.64 122.319ZM1225.56 122.223L1225.62 122.305C1250.61 104.876 1280.7 96.2572 1311.13 97.8057L1311.13 97.7058L1311.14 97.606C1280.66 96.0552 1250.53 104.687 1225.5 122.141L1225.56 122.223ZM1311.13 97.7058L1311.13 97.8057C1353.83 99.9478 1433.24 105.358 1550.75 119.008L1550.76 118.908L1550.77 118.809C1433.26 105.159 1353.85 99.7482 1311.14 97.606L1311.13 97.7058ZM1550.76 118.908L1550.75 119.008C1635.34 128.859 1695.92 137.879 1736.96 144.828L1736.98 144.73L1737 144.631C1695.95 137.681 1635.36 128.661 1550.77 118.809L1550.76 118.908ZM1736.98 144.73L1736.96 144.828C1763.69 149.346 1783.52 167.648 1790.27 191.202L1790.36 191.174L1790.46 191.146C1783.69 167.517 1763.8 149.161 1737 144.631L1736.98 144.73ZM1790.36 191.174L1790.27 191.202C1797.02 214.755 1789.89 240.782 1769.59 258.771L1769.66 258.846L1769.72 258.921C1790.07 240.882 1797.23 214.776 1790.46 191.146L1790.36 191.174ZM1769.66 258.846L1769.59 258.771C1738.46 286.377 1691.85 326.129 1625.32 379.278L1625.38 379.356L1625.44 379.434C1691.98 326.283 1738.59 286.529 1769.72 258.921L1769.66 258.846ZM1625.38 379.356L1625.32 379.278C1532.86 453.084 1468.37 499.722 1433.27 524.134L1433.33 524.216L1433.39 524.298C1468.49 499.884 1532.99 453.243 1625.44 379.434L1625.38 379.356ZM1433.33 524.216L1433.27 524.134C1408.28 541.563 1378.2 550.182 1347.76 548.633L1347.76 548.733L1347.75 548.833C1378.23 550.384 1408.36 541.752 1433.39 524.298L1433.33 524.216ZM1347.76 548.733L1347.76 548.633C1305.06 546.511 1225.66 541.101 1108.15 527.451L1108.14 527.55L1108.12 527.65C1225.64 541.3 1305.05 546.71 1347.75 548.833L1347.76 548.733ZM1108.14 527.55L1108.15 527.451C1076.36 523.772 1044.6 519.765 1012.89 515.431L1012.88 515.53L1012.87 515.629C1044.58 519.963 1076.33 523.97 1108.12 527.65L1108.14 527.55ZM1012.88 515.53L1012.78 515.558L1102.6 829.037L1102.69 829.009L1102.79 828.982L1012.98 515.503L1012.88 515.53ZM1102.69 829.009L1102.69 829.109C1124.28 830.46 1144.7 839.39 1160.35 854.325L1160.41 854.253L1160.48 854.181C1144.8 839.213 1124.34 830.263 1102.7 828.91L1102.69 829.009ZM1160.41 854.253L1160.35 854.325C1175.99 869.26 1185.87 889.241 1188.22 910.744L1188.32 910.733L1188.42 910.723C1186.06 889.173 1176.17 869.148 1160.48 854.181L1160.41 854.253ZM1188.32 910.733L1188.22 910.744C1190.58 932.248 1185.27 953.892 1173.22 971.862L1173.31 971.917L1173.39 971.973C1185.46 953.964 1190.78 932.273 1188.42 910.723L1188.32 910.733ZM1173.31 971.917L1173.22 971.862C1161.18 989.831 1143.18 1002.97 1122.4 1008.97L1122.42 1009.06L1122.45 1009.16C1143.28 1003.15 1161.32 989.981 1173.39 971.973L1173.31 971.917ZM1122.42 1009.06L1122.4 1008.97C1101.58 1014.95 1079.31 1013.38 1059.54 1004.52L1059.5 1004.61L1059.46 1004.71C1079.27 1013.58 1101.59 1015.15 1122.45 1009.16L1122.42 1009.06ZM1059.5 1004.61L1059.54 1004.52C1039.77 995.67 1023.76 980.108 1014.36 960.592L1014.27 960.635L1014.18 960.679C1023.6 980.238 1039.64 995.833 1059.46 1004.71L1059.5 1004.61ZM1014.27 960.635L1014.36 960.592C1004.96 941.075 1002.77 918.862 1008.17 897.883L1008.07 897.858L1007.97 897.833C1002.56 918.858 1004.76 941.12 1014.18 960.679L1014.27 960.635ZM1008.07 897.858L1008.17 897.883C1013.57 876.904 1026.21 858.512 1043.87 845.961L1043.81 845.879L1043.76 845.798C1026.06 858.376 1013.39 876.808 1007.97 897.833L1008.07 897.858ZM1043.81 845.879L1043.91 845.852L946.46 505.719L946.364 505.747L946.267 505.774L1043.72 845.907L1043.81 845.879ZM946.364 505.747L946.379 505.648C937.569 504.25 929.426 502.909 921.951 501.625L921.934 501.723L921.917 501.822C929.393 503.106 937.537 504.448 946.348 505.845L946.364 505.747ZM921.934 501.723L921.951 501.625C895.208 497.113 875.376 478.811 868.628 455.257L868.532 455.285L868.436 455.312C875.206 478.942 895.1 497.298 921.917 501.822L921.934 501.723ZM868.532 455.285L868.628 455.257C861.88 431.704 869.011 405.676 889.307 387.688L889.241 387.613L889.174 387.538C868.822 405.577 861.666 431.683 868.436 455.312L868.532 455.285ZM889.241 387.613L889.307 387.688C920.426 360.062 967.041 320.33 1033.6 267.175L1033.54 267.097L1033.47 267.019C966.914 320.176 920.296 359.91 889.174 387.538L889.241 387.613ZM1033.54 267.097L1033.6 267.175C1126.03 193.375 1190.53 146.736 1225.64 122.319L1225.59 122.237L1225.53 122.155C1190.41 146.575 1125.91 193.216 1033.47 267.019L1033.54 267.097Z" fill="#9850E2" mask="url(#path-6-inside-1_127_841)"/>
<path d="M1450.85 1207.45C1546.76 1207.45 1624.66 1300.78 1624.66 1416.12C1624.66 1531.46 1546.76 1624.79 1450.85 1624.79C1354.93 1624.79 1277.04 1531.46 1277.04 1416.12C1277.04 1300.78 1354.93 1207.45 1450.85 1207.45Z" fill="black" stroke="black"/>
<circle cx="1517.01" cy="1346.68" r="55.2794" fill="#9850E2" stroke="black"/>
<path d="M2170.75 1224.24C2266.68 1224.24 2344.56 1314.47 2344.56 1425.94C2344.56 1537.41 2266.68 1627.64 2170.75 1627.64C2074.83 1627.64 1996.94 1537.41 1996.94 1425.94C1996.94 1314.47 2074.83 1224.24 2170.75 1224.24Z" fill="black" stroke="black"/>
<circle cx="2236.92" cy="1346.68" r="55.2794" fill="#9850E2" stroke="black"/>
<path d="M482.276 1595.99L517.769 1741.73L482.276 1595.99ZM618.729 1619.31L713.202 1502.8L618.729 1619.31ZM678.049 1765.29L819.017 1714.02L678.049 1765.29ZM749.762 1852.25L652.698 1966.61L749.762 1852.25ZM875.951 1863.75L884.445 2013.51L895.349 2012.89L906.049 2010.7L875.951 1863.75ZM972.878 1822.19L877.131 1706.73L876.389 1707.34L875.654 1707.97L972.878 1822.19ZM1085.38 1925.33C1155.35 1880.97 1176.1 1788.29 1131.74 1718.33C1087.38 1648.37 994.702 1627.61 924.738 1671.97L1005.06 1798.65L1085.38 1925.33ZM519.035 1589.71L659.57 1642.15C645.764 1679.15 621.497 1700 610.414 1708.44C597.854 1718.01 586.533 1723.41 580.488 1726.04C568.226 1731.39 558.297 1733.62 554.354 1734.45C545.647 1736.27 537.206 1737.06 528.259 1736.86C524.006 1736.77 514.271 1736.37 501.831 1733.55C498.479 1732.8 454.184 1724.48 420.246 1682.52C398.168 1655.23 383.923 1617.47 387.689 1575.49C391.027 1538.29 407.219 1512.3 417.09 1499.26C435.107 1475.45 455.455 1464.09 458.093 1462.56C471.891 1454.51 475.62 1456.02 438.829 1465.92C409.064 1473.93 360.955 1485.42 285.637 1501.29L316.561 1648.07L347.486 1794.85C425.357 1778.44 479.467 1765.66 516.783 1755.61C535.389 1750.61 551.207 1745.91 564.427 1741.4C575.363 1737.66 592.599 1731.4 609.179 1721.73C614.976 1718.36 637.277 1705.43 656.288 1680.32C666.655 1666.62 683.104 1640.04 686.489 1602.3C690.303 1559.79 675.898 1521.55 653.481 1493.84C633.925 1469.67 611.768 1457.43 599.699 1451.78C586.623 1445.66 575.181 1442.57 567.973 1440.94C553.679 1437.71 541.625 1437.08 534.837 1436.93C520.818 1436.63 506.435 1437.97 492.898 1440.81C486.539 1442.14 474.473 1444.99 460.598 1451.04C453.747 1454.03 441.751 1459.8 428.678 1469.75C417.082 1478.58 392.464 1499.85 378.5 1537.27L519.035 1589.71ZM316.561 1648.07L285.637 1501.29C247.649 1509.29 222.109 1514.43 206.195 1517.4C198 1518.93 193.876 1519.59 192.484 1519.79C191.526 1519.93 193.566 1519.6 197.172 1519.33C198.835 1519.2 203.296 1518.88 209.219 1518.97C210.523 1518.99 230.731 1518.74 254.589 1526.86C264.66 1530.29 300.976 1543.33 328.363 1581.89C365.403 1634.03 360.051 1692.73 342.383 1731.21C328.818 1760.75 309.251 1777.74 303.198 1782.87C294.799 1789.98 287.415 1794.62 283.633 1796.88C275.919 1801.51 269.625 1804.28 267.652 1805.14C264.91 1806.34 262.841 1807.13 261.94 1807.47C259.388 1808.42 259.288 1808.34 264.244 1806.86C272.646 1804.35 286.442 1800.53 304.577 1795.7C376.506 1776.55 493.252 1747.7 517.769 1741.73L482.276 1595.99L446.784 1450.25C421.837 1456.32 302.537 1485.79 227.38 1505.8C208.743 1510.76 191.328 1515.54 178.383 1519.41C172.667 1521.11 164.36 1523.66 156.606 1526.57C155.319 1527.05 142.839 1531.51 129.43 1539.55C125.391 1541.97 117.799 1546.75 109.246 1554C103.039 1559.26 83.3694 1576.37 69.7554 1606.01C52.0384 1644.59 46.6905 1703.39 83.7886 1755.62C111.234 1794.26 147.663 1807.37 157.902 1810.85C182.096 1819.09 202.862 1818.91 204.953 1818.94C211.665 1819.03 217.143 1818.67 220.061 1818.45C226.178 1817.98 231.682 1817.24 235.209 1816.74C242.785 1815.64 251.71 1814.08 261.184 1812.32C280.606 1808.69 308.88 1802.98 347.486 1794.85L316.561 1648.07ZM482.276 1595.99L517.769 1741.73C527.017 1739.47 532.222 1739.07 534.184 1739C535.933 1738.95 534.936 1739.16 532.103 1738.5C530.774 1738.19 529.339 1737.76 527.884 1737.2C526.436 1736.65 525.214 1736.07 524.275 1735.56C522.426 1734.57 522.23 1734.17 524.255 1735.82L618.729 1619.31L713.202 1502.8C687.48 1481.94 650.778 1458.12 600.177 1446.33C550.43 1434.74 499.103 1437.5 446.784 1450.25L482.276 1595.99ZM618.729 1619.31L524.255 1735.82C515.182 1728.46 511.053 1721.37 510.089 1719.55C509.439 1718.32 510.606 1720.22 512.985 1728.47C515.594 1737.53 517.505 1746.12 521.404 1762.33C524.682 1775.95 529.656 1796.13 537.081 1816.55L678.049 1765.29L819.017 1714.02C817.888 1710.92 816.218 1705.19 813.08 1692.15C810.564 1681.69 806.287 1662.87 801.253 1645.4C791.661 1612.11 770.646 1549.37 713.202 1502.8L618.729 1619.31ZM678.049 1765.29L537.081 1816.55C555.542 1867.32 581.642 1904.64 611.076 1932.97C624.749 1946.14 637.426 1955.68 645.524 1961.59C656.92 1969.9 653.789 1967.54 652.698 1966.61L749.762 1852.25L846.826 1737.89C840.492 1732.51 834.641 1728.16 830.967 1725.47C829.063 1724.08 827.196 1722.74 825.865 1721.78C824.382 1720.71 823.355 1719.97 822.361 1719.25C818.639 1716.53 818.49 1716.22 819.137 1716.85C820.075 1717.75 820.94 1718.82 821.377 1719.49C821.731 1720.04 820.693 1718.63 819.017 1714.02L678.049 1765.29ZM749.762 1852.25L652.698 1966.61C677.958 1988.05 704.365 1997.21 716.587 2001.01C731.401 2005.61 745.412 2008.21 756.165 2009.8C777.784 2013.01 799.899 2014.11 817.017 2014.52C834.912 2014.94 851.503 2014.69 863.359 2014.35C869.377 2014.18 874.392 2013.99 878.008 2013.83C879.82 2013.75 881.294 2013.68 882.38 2013.62C882.924 2013.59 883.371 2013.57 883.717 2013.55C883.89 2013.54 884.038 2013.53 884.159 2013.53C884.22 2013.52 884.274 2013.52 884.322 2013.52C884.346 2013.52 884.368 2013.52 884.388 2013.51C884.399 2013.51 884.413 2013.51 884.418 2013.51C884.432 2013.51 884.445 2013.51 875.951 1863.75C867.457 1713.99 867.469 1713.99 867.481 1713.99C867.485 1713.99 867.497 1713.99 867.504 1713.99C867.518 1713.99 867.53 1713.99 867.541 1713.99C867.563 1713.99 867.579 1713.99 867.589 1713.99C867.609 1713.98 867.605 1713.98 867.577 1713.99C867.523 1713.99 867.375 1714 867.14 1714.01C866.67 1714.03 865.855 1714.07 864.74 1714.12C862.501 1714.22 859.106 1714.36 854.904 1714.47C846.319 1714.72 835.227 1714.87 824.149 1714.6C812.296 1714.32 804.152 1713.64 800.179 1713.05C798.135 1712.75 800.517 1712.94 805.613 1714.52C808.117 1715.3 826.717 1720.82 846.826 1737.89L749.762 1852.25ZM875.951 1863.75C906.049 2010.7 906.073 2010.7 906.097 2010.69C906.105 2010.69 906.13 2010.68 906.147 2010.68C906.18 2010.67 906.215 2010.67 906.25 2010.66C906.322 2010.64 906.397 2010.63 906.477 2010.61C906.636 2010.58 906.812 2010.54 907.003 2010.5C907.387 2010.42 907.836 2010.33 908.346 2010.22C909.367 2010 910.639 2009.72 912.138 2009.37C915.13 2008.69 919.068 2007.75 923.75 2006.55C932.997 2004.17 945.731 2000.6 960.138 1995.7C984.693 1987.34 1031.07 1969.65 1070.1 1936.42L972.878 1822.19L875.654 1707.97C881.109 1703.33 879.018 1706.41 863.505 1711.69C857.878 1713.6 852.676 1715.06 848.997 1716.01C847.215 1716.47 845.942 1716.77 845.338 1716.9C845.04 1716.97 844.919 1717 844.995 1716.98C845.033 1716.97 845.122 1716.95 845.264 1716.92C845.335 1716.91 845.419 1716.89 845.517 1716.87C845.566 1716.86 845.618 1716.85 845.674 1716.84C845.702 1716.83 845.731 1716.83 845.761 1716.82C845.776 1716.82 845.799 1716.81 845.806 1716.81C845.829 1716.81 845.853 1716.8 875.951 1863.75ZM972.878 1822.19L1068.62 1937.66C1074.2 1933.04 1076.5 1931.29 1077.75 1930.38C1078.87 1929.57 1080.5 1928.43 1085.38 1925.33L1005.06 1798.65L924.738 1671.97C907.032 1683.2 895.466 1691.52 877.131 1706.73L972.878 1822.19Z" fill="#9850E2"/>
<path d="M3127.84 1595.99L3092.35 1741.73L3127.84 1595.99ZM2991.39 1619.31L2896.92 1502.8L2991.39 1619.31ZM2932.07 1765.29L2791.1 1714.02L2932.07 1765.29ZM2860.36 1852.25L2957.42 1966.61L2860.36 1852.25ZM2734.17 1863.75L2725.68 2013.51L2714.77 2012.89L2704.07 2010.7L2734.17 1863.75ZM2637.24 1822.19L2732.99 1706.73L2733.73 1707.34L2734.47 1707.97L2637.24 1822.19ZM2524.74 1925.33C2454.77 1880.97 2434.02 1788.29 2478.38 1718.33C2522.74 1648.37 2615.42 1627.61 2685.38 1671.97L2605.06 1798.65L2524.74 1925.33ZM3091.09 1589.71L2950.55 1642.15C2964.36 1679.15 2988.62 1700 2999.71 1708.44C3012.27 1718.01 3023.59 1723.41 3029.63 1726.04C3041.9 1731.39 3051.82 1733.62 3055.77 1734.45C3064.47 1736.27 3072.92 1737.06 3081.86 1736.86C3086.11 1736.77 3095.85 1736.37 3108.29 1733.55C3111.64 1732.8 3155.94 1724.48 3189.88 1682.52C3211.95 1655.23 3226.2 1617.47 3222.43 1575.49C3219.09 1538.29 3202.9 1512.3 3193.03 1499.26C3175.01 1475.45 3154.67 1464.09 3152.03 1462.56C3138.23 1454.51 3134.5 1456.02 3171.29 1465.92C3201.06 1473.93 3249.17 1485.42 3324.48 1501.29L3293.56 1648.07L3262.64 1794.85C3184.76 1778.44 3130.65 1765.66 3093.34 1755.61C3074.73 1750.61 3058.91 1745.91 3045.69 1741.4C3034.76 1737.66 3017.52 1731.4 3000.94 1721.73C2995.14 1718.36 2972.84 1705.43 2953.83 1680.32C2943.47 1666.62 2927.02 1640.04 2923.63 1602.3C2919.82 1559.79 2934.22 1521.55 2956.64 1493.84C2976.2 1469.67 2998.35 1457.43 3010.42 1451.78C3023.5 1445.66 3034.94 1442.57 3042.15 1440.94C3056.44 1437.71 3068.5 1437.08 3075.28 1436.93C3089.3 1436.63 3103.69 1437.97 3117.22 1440.81C3123.58 1442.14 3135.65 1444.99 3149.52 1451.04C3156.37 1454.03 3168.37 1459.8 3181.44 1469.75C3193.04 1478.58 3217.66 1499.85 3231.62 1537.27L3091.09 1589.71ZM3293.56 1648.07L3324.48 1501.29C3362.47 1509.29 3388.01 1514.43 3403.93 1517.4C3412.12 1518.93 3416.25 1519.59 3417.64 1519.79C3418.59 1519.93 3416.55 1519.6 3412.95 1519.33C3411.29 1519.2 3406.83 1518.88 3400.9 1518.97C3399.6 1518.99 3379.39 1518.74 3355.53 1526.86C3345.46 1530.29 3309.15 1543.33 3281.76 1581.89C3244.72 1634.03 3250.07 1692.73 3267.74 1731.21C3281.3 1760.75 3300.87 1777.74 3306.92 1782.87C3315.32 1789.98 3322.71 1794.62 3326.49 1796.88C3334.2 1801.51 3340.5 1804.28 3342.47 1805.14C3345.21 1806.34 3347.28 1807.13 3348.18 1807.47C3350.73 1808.42 3350.83 1808.34 3345.88 1806.86C3337.47 1804.35 3323.68 1800.53 3305.54 1795.7C3233.62 1776.55 3116.87 1747.7 3092.35 1741.73L3127.84 1595.99L3163.34 1450.25C3188.28 1456.32 3307.58 1485.79 3382.74 1505.8C3401.38 1510.76 3418.79 1515.54 3431.74 1519.41C3437.45 1521.11 3445.76 1523.66 3453.51 1526.57C3454.8 1527.05 3467.28 1531.51 3480.69 1539.55C3484.73 1541.97 3492.32 1546.75 3500.88 1554C3507.08 1559.26 3526.75 1576.37 3540.37 1606.01C3558.08 1644.59 3563.43 1703.39 3526.33 1755.62C3498.89 1794.26 3462.46 1807.37 3452.22 1810.85C3428.02 1819.09 3407.26 1818.91 3405.17 1818.94C3398.46 1819.03 3392.98 1818.67 3390.06 1818.45C3383.94 1817.98 3378.44 1817.24 3374.91 1816.74C3367.34 1815.64 3358.41 1814.08 3348.94 1812.32C3329.51 1808.69 3301.24 1802.98 3262.64 1794.85L3293.56 1648.07ZM3127.84 1595.99L3092.35 1741.73C3083.1 1739.47 3077.9 1739.07 3075.94 1739C3074.19 1738.95 3075.19 1739.16 3078.02 1738.5C3079.35 1738.19 3080.78 1737.76 3082.24 1737.2C3083.69 1736.65 3084.91 1736.07 3085.85 1735.56C3087.69 1734.57 3087.89 1734.17 3085.87 1735.82L2991.39 1619.31L2896.92 1502.8C2922.64 1481.94 2959.34 1458.12 3009.94 1446.33C3059.69 1434.74 3111.02 1437.5 3163.34 1450.25L3127.84 1595.99ZM2991.39 1619.31L3085.87 1735.82C3094.94 1728.46 3099.07 1721.37 3100.03 1719.55C3100.68 1718.32 3099.52 1720.22 3097.14 1728.47C3094.53 1737.53 3092.62 1746.12 3088.72 1762.33C3085.44 1775.95 3080.47 1796.13 3073.04 1816.55L2932.07 1765.29L2791.1 1714.02C2792.23 1710.92 2793.9 1705.19 2797.04 1692.15C2799.56 1681.69 2803.83 1662.87 2808.87 1645.4C2818.46 1612.11 2839.48 1549.37 2896.92 1502.8L2991.39 1619.31ZM2932.07 1765.29L3073.04 1816.55C3054.58 1867.32 3028.48 1904.64 2999.05 1932.97C2985.37 1946.14 2972.69 1955.68 2964.6 1961.59C2953.2 1969.9 2956.33 1967.54 2957.42 1966.61L2860.36 1852.25L2763.3 1737.89C2769.63 1732.51 2775.48 1728.16 2779.15 1725.47C2781.06 1724.08 2782.93 1722.74 2784.26 1721.78C2785.74 1720.71 2786.77 1719.97 2787.76 1719.25C2791.48 1716.53 2791.63 1716.22 2790.98 1716.85C2790.05 1717.75 2789.18 1718.82 2788.74 1719.49C2788.39 1720.04 2789.43 1718.63 2791.1 1714.02L2932.07 1765.29ZM2860.36 1852.25L2957.42 1966.61C2932.16 1988.05 2905.76 1997.21 2893.53 2001.01C2878.72 2005.61 2864.71 2008.21 2853.96 2009.8C2832.34 2013.01 2810.22 2014.11 2793.1 2014.52C2775.21 2014.94 2758.62 2014.69 2746.76 2014.35C2740.74 2014.18 2735.73 2013.99 2732.11 2013.83C2730.3 2013.75 2728.83 2013.68 2727.74 2013.62C2727.2 2013.59 2726.75 2013.57 2726.4 2013.55C2726.23 2013.54 2726.08 2013.53 2725.96 2013.53C2725.9 2013.52 2725.85 2013.52 2725.8 2013.52C2725.78 2013.52 2725.75 2013.52 2725.73 2013.51C2725.72 2013.51 2725.71 2013.51 2725.7 2013.51C2725.69 2013.51 2725.68 2013.51 2734.17 1863.75C2742.66 1713.99 2742.65 1713.99 2742.64 1713.99C2742.64 1713.99 2742.62 1713.99 2742.62 1713.99C2742.6 1713.99 2742.59 1713.99 2742.58 1713.99C2742.56 1713.99 2742.54 1713.99 2742.53 1713.99C2742.51 1713.98 2742.52 1713.98 2742.54 1713.99C2742.6 1713.99 2742.75 1714 2742.98 1714.01C2743.45 1714.03 2744.27 1714.07 2745.38 1714.12C2747.62 1714.22 2751.02 1714.36 2755.22 1714.47C2763.8 1714.72 2774.89 1714.87 2785.97 1714.6C2797.82 1714.32 2805.97 1713.64 2809.94 1713.05C2811.99 1712.75 2809.6 1712.94 2804.51 1714.52C2802 1715.3 2783.4 1720.82 2763.3 1737.89L2860.36 1852.25ZM2734.17 1863.75C2704.07 2010.7 2704.05 2010.7 2704.02 2010.69C2704.02 2010.69 2703.99 2010.68 2703.97 2010.68C2703.94 2010.67 2703.91 2010.67 2703.87 2010.66C2703.8 2010.64 2703.72 2010.63 2703.64 2010.61C2703.49 2010.58 2703.31 2010.54 2703.12 2010.5C2702.73 2010.42 2702.29 2010.33 2701.77 2010.22C2700.75 2010 2699.48 2009.72 2697.98 2009.37C2694.99 2008.69 2691.05 2007.75 2686.37 2006.55C2677.12 2004.17 2664.39 2000.6 2649.98 1995.7C2625.43 1987.34 2579.06 1969.65 2540.02 1936.42L2637.24 1822.19L2734.47 1707.97C2729.01 1703.33 2731.1 1706.41 2746.62 1711.69C2752.24 1713.6 2757.44 1715.06 2761.12 1716.01C2762.91 1716.47 2764.18 1716.77 2764.78 1716.9C2765.08 1716.97 2765.2 1717 2765.13 1716.98C2765.09 1716.97 2765 1716.95 2764.86 1716.92C2764.79 1716.91 2764.7 1716.89 2764.6 1716.87C2764.56 1716.86 2764.5 1716.85 2764.45 1716.84C2764.42 1716.83 2764.39 1716.83 2764.36 1716.82C2764.35 1716.82 2764.32 1716.81 2764.32 1716.81C2764.29 1716.81 2764.27 1716.8 2734.17 1863.75ZM2637.24 1822.19L2541.5 1937.66C2535.92 1933.04 2533.62 1931.29 2532.37 1930.38C2531.25 1929.57 2529.62 1928.43 2524.74 1925.33L2605.06 1798.65L2685.38 1671.97C2703.09 1683.2 2714.66 1691.52 2732.99 1706.73L2637.24 1822.19Z" fill="#9850E2"/>
<path d="M810.765 2365.06C823.06 2364.79 853.422 2365.1 876.927 2369.18C893.776 2372.11 911.401 2373.24 941.959 2370.46C1004.57 2364.78 1101.34 2344.77 1119.99 2336.41C1140.45 2327.24 1174.07 2309.04 1192.28 2293.22C1213 2275.21 1241.7 2249.35 1243.83 2237.08C1247.49 2215.98 1263.15 2203.43 1273.15 2192.94C1288.27 2177.08 1303.39 2154.43 1316.61 2142.53C1328.42 2131.89 1351.5 2120.04 1376.51 2112.36C1397.29 2105.98 1416.77 2096.93 1449.37 2089.81C1478.88 2080.54 1512.73 2075.86 1520.98 2075.83C1525.11 2075.6 1529.1 2074.95 1533.21 2074.27" stroke="#9850E2" stroke-width="300" stroke-linecap="round"/>
<path d="M2799.95 2365.06C2787.65 2364.79 2757.29 2365.1 2733.78 2369.18C2716.94 2372.11 2699.31 2373.24 2668.75 2370.46C2606.15 2364.78 2509.37 2344.77 2490.72 2336.41C2470.26 2327.24 2436.64 2309.04 2418.43 2293.22C2397.72 2275.21 2369.01 2249.35 2366.88 2237.08C2363.23 2215.98 2347.56 2203.43 2337.56 2192.94C2322.44 2177.08 2307.32 2154.43 2294.1 2142.53C2282.29 2131.89 2259.22 2120.04 2234.2 2112.36C2213.42 2105.98 2193.94 2096.93 2161.34 2089.81C2131.83 2080.54 2097.98 2075.86 2089.73 2075.83C2085.6 2075.6 2081.61 2074.95 2077.5 2074.27" stroke="#9850E2" stroke-width="300" stroke-linecap="round"/>
<path d="M4076.6 2044V1427.2C4076.6 1320 4103.4 1236.8 4157 1177.6C4211.4 1118.4 4285 1088.8 4377.8 1088.8C4477.8 1088.8 4555 1118.8 4609.4 1178.8C4663.8 1238.8 4691 1323.6 4691 1433.2C4691 1502.8 4679.4 1562.8 4656.2 1613.2C4633 1662.8 4600.6 1701.2 4559 1728.4C4518.2 1754.8 4471 1768 4417.4 1768C4387 1768 4358.2 1764 4331 1756C4304.6 1748 4281 1736.8 4260.2 1722.4H4248.2C4250.6 1739.2 4252.6 1762.4 4254.2 1792C4256.6 1821.6 4257.8 1850.8 4257.8 1879.6V2044H4076.6ZM4381.4 1630C4419.8 1630 4450.2 1615.2 4472.6 1585.6C4495 1555.2 4506.2 1504.8 4506.2 1434.4C4506.2 1359.2 4494.6 1306 4471.4 1274.8C4449 1242.8 4417 1226.8 4375.4 1226.8C4297.8 1226.8 4259 1287.6 4259 1409.2V1576C4275 1592 4293.4 1605.2 4314.2 1615.6C4335.8 1625.2 4358.2 1630 4381.4 1630ZM4784.2 1420C4784.2 1351.2 4797 1290.8 4822.6 1238.8C4849 1186.8 4884.6 1146.8 4929.4 1118.8C4974.2 1090.8 5024.2 1076.8 5079.4 1076.8C5126.6 1076.8 5167.8 1086.4 5203 1105.6C5239 1124.8 5266.6 1150 5285.8 1181.2V1086.4H5491V1756H5285.8V1661.2C5265.8 1692.4 5237.8 1717.6 5201.8 1736.8C5166.6 1756 5125.4 1765.6 5078.2 1765.6C5023.8 1765.6 4974.2 1751.6 4929.4 1723.6C4884.6 1694.8 4849 1654.4 4822.6 1602.4C4797 1549.6 4784.2 1488.8 4784.2 1420ZM5285.8 1421.2C5285.8 1370 5271.4 1329.6 5242.6 1300C5214.6 1270.4 5180.2 1255.6 5139.4 1255.6C5098.6 1255.6 5063.8 1270.4 5035 1300C5007 1328.8 4993 1368.8 4993 1420C4993 1471.2 5007 1512 5035 1542.4C5063.8 1572 5098.6 1586.8 5139.4 1586.8C5180.2 1586.8 5214.6 1572 5242.6 1542.4C5271.4 1512.8 5285.8 1472.4 5285.8 1421.2ZM5744.45 1016.8C5708.45 1016.8 5678.85 1006.4 5655.65 985.6C5633.25 964 5622.05 937.6 5622.05 906.4C5622.05 874.4 5633.25 848 5655.65 827.2C5678.85 805.6 5708.45 794.8 5744.45 794.8C5779.65 794.8 5808.45 805.6 5830.85 827.2C5854.05 848 5865.65 874.4 5865.65 906.4C5865.65 937.6 5854.05 964 5830.85 985.6C5808.45 1006.4 5779.65 1016.8 5744.45 1016.8ZM5846.45 1086.4V1756H5641.25V1086.4H5846.45ZM5956.16 1420C5956.16 1351.2 5968.96 1290.8 5994.56 1238.8C6020.96 1186.8 6056.56 1146.8 6101.36 1118.8C6146.16 1090.8 6196.16 1076.8 6251.36 1076.8C6295.36 1076.8 6335.36 1086 6371.36 1104.4C6408.16 1122.8 6436.96 1147.6 6457.76 1178.8V868H6662.96V1756H6457.76V1660C6438.56 1692 6410.96 1717.6 6374.96 1736.8C6339.76 1756 6298.56 1765.6 6251.36 1765.6C6196.16 1765.6 6146.16 1751.6 6101.36 1723.6C6056.56 1694.8 6020.96 1654.4 5994.56 1602.4C5968.96 1549.6 5956.16 1488.8 5956.16 1420ZM6457.76 1421.2C6457.76 1370 6443.36 1329.6 6414.56 1300C6386.56 1270.4 6352.16 1255.6 6311.36 1255.6C6270.56 1255.6 6235.76 1270.4 6206.96 1300C6178.96 1328.8 6164.96 1368.8 6164.96 1420C6164.96 1471.2 6178.96 1512 6206.96 1542.4C6235.76 1572 6270.56 1586.8 6311.36 1586.8C6352.16 1586.8 6386.56 1572 6414.56 1542.4C6443.36 1512.8 6457.76 1472.4 6457.76 1421.2ZM7444.41 1410.4C7444.41 1429.6 7443.21 1449.6 7440.81 1470.4H6976.41C6979.61 1512 6992.81 1544 7016.01 1566.4C7040.01 1588 7069.21 1598.8 7103.61 1598.8C7154.81 1598.8 7190.41 1577.2 7210.41 1534H7428.81C7417.61 1578 7397.21 1617.6 7367.61 1652.8C7338.81 1688 7302.41 1715.6 7258.41 1735.6C7214.41 1755.6 7165.21 1765.6 7110.81 1765.6C7045.21 1765.6 6986.81 1751.6 6935.61 1723.6C6884.41 1695.6 6844.41 1655.6 6815.61 1603.6C6786.81 1551.6 6772.41 1490.8 6772.41 1421.2C6772.41 1351.6 6786.41 1290.8 6814.41 1238.8C6843.21 1186.8 6883.21 1146.8 6934.41 1118.8C6985.61 1090.8 7044.41 1076.8 7110.81 1076.8C7175.61 1076.8 7233.21 1090.4 7283.61 1117.6C7334.01 1144.8 7373.21 1183.6 7401.21 1234C7430.01 1284.4 7444.41 1343.2 7444.41 1410.4ZM7234.41 1356.4C7234.41 1321.2 7222.41 1293.2 7198.41 1272.4C7174.41 1251.6 7144.41 1241.2 7108.41 1241.2C7074.01 1241.2 7044.81 1251.2 7020.81 1271.2C6997.61 1291.2 6983.21 1319.6 6977.61 1356.4H7234.41ZM7657.66 1016.8C7621.66 1016.8 7592.06 1006.4 7568.86 985.6C7546.46 964 7535.26 937.6 7535.26 906.4C7535.26 874.4 7546.46 848 7568.86 827.2C7592.06 805.6 7621.66 794.8 7657.66 794.8C7692.86 794.8 7721.66 805.6 7744.06 827.2C7767.26 848 7778.86 874.4 7778.86 906.4C7778.86 937.6 7767.26 964 7744.06 985.6C7721.66 1006.4 7692.86 1016.8 7657.66 1016.8ZM7759.66 1086.4V1756H7554.46V1086.4H7759.66ZM7869.37 1420C7869.37 1351.2 7882.17 1290.8 7907.77 1238.8C7934.17 1186.8 7969.77 1146.8 8014.57 1118.8C8059.37 1090.8 8109.37 1076.8 8164.57 1076.8C8211.77 1076.8 8252.97 1086.4 8288.17 1105.6C8324.17 1124.8 8351.77 1150 8370.97 1181.2V1086.4H8576.17V1756H8370.97V1661.2C8350.97 1692.4 8322.97 1717.6 8286.97 1736.8C8251.77 1756 8210.57 1765.6 8163.37 1765.6C8108.97 1765.6 8059.37 1751.6 8014.57 1723.6C7969.77 1694.8 7934.17 1654.4 7907.77 1602.4C7882.17 1549.6 7869.37 1488.8 7869.37 1420ZM8370.97 1421.2C8370.97 1370 8356.57 1329.6 8327.77 1300C8299.77 1270.4 8265.37 1255.6 8224.57 1255.6C8183.77 1255.6 8148.97 1270.4 8120.17 1300C8092.17 1328.8 8078.17 1368.8 8078.17 1420C8078.17 1471.2 8092.17 1512 8120.17 1542.4C8148.97 1572 8183.77 1586.8 8224.57 1586.8C8265.37 1586.8 8299.77 1572 8327.77 1542.4C8356.57 1512.8 8370.97 1472.4 8370.97 1421.2ZM8822.42 1765.6C8786.42 1765.6 8756.82 1755.2 8733.62 1734.4C8711.22 1712.8 8700.02 1686.4 8700.02 1655.2C8700.02 1623.2 8711.22 1596.4 8733.62 1574.8C8756.82 1553.2 8786.42 1542.4 8822.42 1542.4C8857.62 1542.4 8886.42 1553.2 8908.82 1574.8C8932.02 1596.4 8943.62 1623.2 8943.62 1655.2C8943.62 1686.4 8932.02 1712.8 8908.82 1734.4C8886.42 1755.2 8857.62 1765.6 8822.42 1765.6Z" fill="#9850E2"/>
</svg>
