<svg width="480" height="165" viewBox="0 0 480 165" fill="none" xmlns="http://www.w3.org/2000/svg">
<g clip-path="url(#clip0_140_841)">
<path d="M31.377 28.6503C28.741 28.3059 25.0078 28.1176 22.7637 26.6843C21.4343 25.835 21.2436 24.1818 22.4184 23.0409C27.4679 18.1685 33.628 14.0616 39.2284 9.80234C41.7828 7.85969 51.6317 0.0607344 54.0266 0.149184C66.0842 0.594412 78.4347 2.28588 90.3346 4.31476C91.1994 4.46234 92.7687 5.47926 92.6422 6.60102C91.6211 10.786 84.7077 14.4499 81.7275 17.4696L81.5665 17.6346L82.0812 18.8379C97.1557 16.7193 111.855 20.9711 123.95 30.0881C137.002 39.9559 145.546 54.6651 147.661 70.9077C150.198 89.3412 143.664 106.982 130.171 119.651C136.426 120.218 140.441 119.76 145.72 115.917C152.288 111.136 150.808 99.6004 160.95 100.394C166.891 100.88 169.705 105.912 168.966 111.496C167.937 119.266 163.665 127.018 157.514 131.881C147.865 139.51 133.512 140.91 122.372 135.89C125.445 140.277 131.521 144.823 136.859 145.648C142.064 146.452 147.531 144.302 151.375 149.569C152.818 151.555 153.397 154.042 152.982 156.463C151.135 166.978 136.713 165.074 129.136 163.76C122.493 162.608 116.093 159.155 110.939 154.924C106.677 151.546 103.593 147.115 99.591 143.454C92.1831 136.678 80.4943 136.309 72.1665 141.572C69.8601 143.098 67.9146 145.053 66.1242 147.154C64.5232 149.033 62.8828 150.636 61.1605 152.409C51.7724 162.072 37.6477 166.28 24.4584 164.186C21.7411 163.755 19.3023 162.444 17.7772 160.151C15.2037 156.406 16.0058 150.075 19.938 147.583C23.2679 145.473 27.1596 145.99 30.8862 145.757C37.6153 145.053 42.9733 141.091 47.0761 136.026C29.4223 143.172 9.05426 136.568 1.81732 118.227C0.36721 114.553 -0.828456 109.526 0.814443 105.768C1.79071 103.565 3.61905 101.853 5.87987 101.026C9.44465 99.7087 14.2702 100.601 16.4934 104.097C17.7306 106.042 18.0686 108.714 19.3477 110.697C23.6075 118.402 31.1635 120.594 39.3489 119.754C28.0994 108.409 22.4675 95.5362 22.2389 79.3522C22.1111 70.3032 26.081 56.3392 31.5166 49.1658C31.9177 48.336 31.3653 31.1895 31.377 28.6503ZM44.008 30.4086C41.4864 29.9807 38.5969 29.653 36.0334 29.3795C36.0014 33.92 35.9937 38.4607 36.01 43.0012C37.7298 41.3775 40.0176 39.1151 41.8289 37.7081C42.7989 36.8753 43.6258 31.9935 44.008 30.4086ZM63.4024 106.012C78.5625 103.01 75.9689 78.856 61.2232 79.5027C45.4064 82.5247 48.1941 106.842 63.4024 106.012Z" fill="#8A55E5"/>
<path d="M31.3764 28.6503C28.7404 28.3059 25.0072 28.1176 22.7631 26.6843C21.4337 25.835 21.2429 24.1818 22.4178 23.0409C27.4673 18.1685 33.6274 14.0616 39.2278 9.80234C41.7822 7.85969 51.6311 0.0607344 54.026 0.149184C66.0836 0.594412 78.4341 2.28588 90.334 4.31476C91.1988 4.46234 92.7681 5.47926 92.6416 6.60102C91.6205 10.786 84.7071 14.4499 81.7269 17.4696L81.5659 17.6346C77.1285 21.2096 65.3931 30.8481 60.1869 31.5375C55.351 32.1781 48.8654 30.9316 44.0074 30.4086C41.4858 29.9807 38.5963 29.653 36.0328 29.3795C36.0008 33.92 35.9931 38.4607 36.0094 43.0012C35.7743 45.8042 35.8455 50.5696 35.9038 53.4752C41.4545 56.1225 41.1375 62.7416 36.1466 64.3061C34.4943 64.8134 32.7078 64.638 31.1852 63.8186C26.2999 61.1482 27.8312 56.3807 31.8149 53.5995C31.8144 52.4243 31.9151 50.181 31.516 49.1658C31.9171 48.336 31.3647 31.1895 31.3764 28.6503Z" fill="#060606"/>
<path d="M44.0092 30.4088C48.8672 30.9317 55.3527 32.1782 60.1887 31.5377C65.3949 30.8483 77.1303 21.2098 81.5677 17.6348L82.0823 18.838C82.8753 22.5541 84.5261 26.6946 82.4683 30.4448C77.792 38.9662 47.3352 45.4824 41.8301 37.7083C42.8001 36.8755 43.627 31.9936 44.0092 30.4088Z" fill="black"/>
<path d="M106.811 79.5023C122.013 78.8183 124.32 103.398 109.039 105.996C93.9396 107.221 91.5752 82.3451 106.811 79.5023Z" fill="black"/>
<path d="M111.971 84.5245C113.821 84.3658 115.466 85.7002 115.696 87.5465C115.924 89.3927 114.656 91.0902 112.823 91.39C111.574 91.5943 110.313 91.0979 109.536 90.0961C108.76 89.0941 108.593 87.7472 109.101 86.5852C109.608 85.4234 110.71 84.6329 111.971 84.5245Z" fill="#FFFFFE"/>
<path d="M66.2209 84.3397C68.1728 84.1722 69.908 85.5804 70.1497 87.5287C70.3912 89.477 69.0532 91.2682 67.1197 91.5847C65.8015 91.8002 64.4713 91.2763 63.6524 90.2192C62.8335 89.1618 62.6571 87.7405 63.1927 86.5143C63.7283 85.2883 64.8902 84.454 66.2209 84.3397Z" fill="#FFFFFE"/>
<path d="M61.2245 79.503C75.9701 78.8563 78.5637 103.01 63.4036 106.012C48.1954 106.842 45.4076 82.5249 61.2245 79.503ZM66.9821 91.4233C68.8484 91.1589 70.1639 89.4523 69.9474 87.5767C69.7306 85.7011 68.061 84.3404 66.1837 84.5098C64.9265 84.6234 63.8294 85.411 63.3183 86.5673C62.8071 87.7236 62.9621 89.0667 63.7233 90.0754C64.4845 91.0844 65.732 91.6004 66.9821 91.4233Z" fill="black"/>
<path d="M109.399 38.8528C112.325 38.2377 115.193 40.1202 115.799 43.0532C116.404 45.9864 114.516 48.8541 111.586 49.4514C108.669 50.0461 105.821 48.1649 105.218 45.2443C104.616 42.324 106.485 39.4655 109.399 38.8528Z" fill="#1C1A1A"/>
<path d="M123.775 49.5021C126.241 49.0052 128.711 50.3336 129.659 52.6669C130.163 53.9061 130.175 55.2915 129.692 56.5393C129.031 58.2501 127.526 59.4906 125.723 59.8109C122.898 60.313 120.196 58.4449 119.663 55.621C119.129 52.7973 120.963 50.069 123.775 49.5021Z" fill="#1C1A1A"/>
<path d="M110.936 58.1748C112.491 57.9455 114.045 58.5872 114.987 59.8469C115.928 61.1063 116.106 62.7813 115.449 64.2107C114.791 65.6401 113.406 66.5939 111.838 66.6962C109.547 66.8455 107.546 65.1568 107.303 62.8691C107.061 60.5815 108.665 58.5099 110.936 58.1748Z" fill="#1C1A1A"/>
<path d="M335.53 53.2973C339.282 53.1927 343.513 53.3075 347.303 53.3286L347.276 113.525L335.53 113.522L335.649 109.641C330.577 116.013 322.374 115.717 315.514 112.865C313.406 111.743 311.499 110.275 309.869 108.523C297.423 95.0648 305.993 71.2393 325.09 71.7355C329.411 71.8478 332.876 73.6185 335.73 76.7597C335.232 70.21 335.594 60.1926 335.53 53.2973ZM326.115 103.786C331.812 103.494 336.222 98.677 336.018 92.9656C335.817 87.2544 331.078 82.7614 325.376 82.8737C321.603 82.9479 318.166 85.0521 316.38 88.3791C314.594 91.7062 314.735 95.7396 316.752 98.9317C318.771 102.124 322.347 103.98 326.115 103.786Z" fill="#8A55E5"/>
<path d="M209.4 71.5887C214.535 70.499 221.245 72.8417 225.295 76.1325C234.405 83.5354 235.776 98.9161 228.149 108.016C224.913 111.92 220.243 114.353 215.194 114.765C210.067 115.2 206.246 114.429 202.227 111.011L202.178 115.54C202.124 120.698 202.133 125.857 202.205 131.014C198.247 130.943 194.287 130.963 190.33 131.074C190.573 122.271 190.301 113.264 190.396 104.447C190.567 99.4024 189.954 94.0785 190.96 89.1102C192.934 79.3648 199.725 73.0313 209.4 71.5887ZM214.143 103.763C225.259 101.3 224.831 81.7718 210.112 82.7562C203.653 84.1468 200.79 90.5477 202.254 96.6629C202.84 99.1713 204.432 101.327 206.655 102.622C209.035 104.03 211.467 104.287 214.143 103.763Z" fill="#8A55E5"/>
<path d="M433.273 71.8322C438.08 71.0051 443.824 72.8991 446.962 76.683L447.046 72.9694C450.942 72.9925 454.839 72.9843 458.735 72.9445C458.507 86.487 458.497 100.032 458.705 113.575C454.824 113.491 450.94 113.48 447.056 113.541C447.056 112.333 447.041 111.379 446.942 110.178L446.622 110.155C444.414 112.543 441.453 114.096 438.236 114.554C433.023 115.291 427.732 113.919 423.531 110.741C414.109 103.591 412.973 88.5658 420.031 79.4254C423.251 75.2176 428.023 72.4817 433.273 71.8322ZM438.941 103.64C442.656 102.922 445.697 100.253 446.895 96.6574C448.093 93.0621 447.262 89.099 444.722 86.2892C442.182 83.4795 438.328 82.2595 434.637 83.0981C429.059 84.3654 425.525 89.8811 426.701 95.4894C427.876 101.098 433.323 104.726 438.941 103.64Z" fill="#8A55E5"/>
<path d="M254.35 71.8328C259.767 71.4055 264.37 72.4775 267.927 76.8476C267.798 75.6394 267.75 74.1765 267.676 72.9444C271.575 72.9844 275.471 72.9886 279.37 72.9563L279.375 113.426C275.452 113.425 271.642 113.403 267.721 113.603L267.716 109.899L266.203 111.519C264.618 112.931 261.996 114.092 259.925 114.45C248.293 116.455 238.774 108.807 236.839 97.3671C235.805 91.2509 237.256 84.974 240.867 79.9354C244.223 75.2562 248.742 72.7429 254.35 71.8328ZM260.511 103.747C271.89 100.568 270.362 81.4149 255.838 82.7638C242.72 87.1032 247.016 106.292 260.511 103.747Z" fill="#8A55E5"/>
<path d="M370.911 71.8587C371.93 71.6882 373.803 71.7583 374.859 71.841C380.008 72.2932 384.768 74.7685 388.099 78.7262C392.62 84.0669 393.434 90.1657 392.888 96.9005C383.235 96.8148 373.53 96.987 363.887 96.8198C366.32 104.858 375.088 107.564 380.182 100.29C384.148 100.369 388.176 100.362 392.144 100.39C392.687 100.973 391.906 102.564 391.631 103.217C386.39 115.699 369.713 118.225 359.718 110.092C355.501 106.657 352.833 101.674 352.309 96.2543C351.047 84.0351 358.324 73.1469 370.911 71.8587ZM373.56 88.2004L381.457 88.1676C379.334 83.9392 376.938 81.6378 371.903 82.0251C367.699 82.569 365.826 84.5054 364.125 88.2372C367.27 88.2039 370.415 88.1915 373.56 88.2004Z" fill="#8A55E5"/>
<path d="M287.055 72.9199C290.916 72.982 294.778 73.0004 298.642 72.9758C298.689 86.1749 298.317 100.019 298.657 113.159C298.211 113.619 288.446 113.501 287.077 113.516C287.142 99.9842 287.134 86.4519 287.055 72.9199Z" fill="#8A55E5"/>
<path d="M398.504 72.9551C402.321 73.0028 406.215 72.9655 410.039 72.968C409.92 86.4568 409.93 99.9461 410.072 113.435C409.276 113.597 400.128 113.537 398.539 113.55L398.504 72.9551Z" fill="#8A55E5"/>
<path d="M403.182 52.9726C407.219 52.3095 411.037 55.0288 411.738 59.0676C412.44 63.1067 409.764 66.9578 405.739 67.7002C401.656 68.4527 397.748 65.7252 397.036 61.6299C396.324 57.5347 399.084 53.6449 403.182 52.9726Z" fill="#8A55E5"/>
<path d="M291.864 53.0039C295.921 52.3778 299.716 55.1652 300.341 59.2299C300.966 63.2943 298.183 67.0966 294.126 67.7227C290.068 68.3488 286.273 65.5612 285.648 61.4968C285.023 57.4323 287.806 53.63 291.864 53.0039Z" fill="#8A55E5"/>
<path d="M471.055 100.668C473.475 99.9933 476.072 100.686 477.838 102.477C479.604 104.269 480.264 106.878 479.559 109.295C478.858 111.713 476.903 113.559 474.453 114.12C470.782 114.959 467.116 112.711 466.193 109.056C465.271 105.402 467.429 101.678 471.055 100.668Z" fill="#8A55E5"/>
</g>
<defs>
<clipPath id="clip0_140_841">
<rect width="480" height="165" fill="white"/>
</clipPath>
</defs>
</svg>
