<svg width="1581" height="542" viewBox="0 0 1581 542" fill="none" xmlns="http://www.w3.org/2000/svg">
<g clip-path="url(#clip0_132_910)">
<path d="M270.776 61.887C320.62 54.8063 368.099 68.5475 408.067 98.6538C450.71 130.98 478.703 178.967 485.846 231.988C492.816 280.936 479.803 330.63 449.735 369.886C443.499 378.117 436.506 385.747 428.847 392.676C447.225 394.516 463.403 393.803 478.667 381.23C484.654 376.199 489.64 370.087 493.365 363.213C502.094 347.274 504.836 327.882 528.924 329.705C549.4 331.254 559.061 348.769 555.931 367.806C543.733 441.999 468.728 471.894 402.858 446.854C418.476 465.536 435.425 477.462 460.316 479.291C474.031 480.299 485.072 475.934 496.531 489.264C501.699 495.335 504.238 503.214 503.584 511.159C501.014 542.862 463.61 542.051 440.314 539.855C416.658 537.867 392.582 528.753 373.536 514.759C337.205 488.066 324.571 447.739 271.691 453.306C233.27 457.352 225.821 477.137 200.945 500.942C170.848 530.154 129.329 544.497 87.6123 540.093C77.2285 539.023 66.9205 536.113 60.1419 527.631C54.6458 520.753 53.3306 511.582 54.3944 503.048C55.2304 496.347 58.0192 490.546 63.4271 486.37C86.7151 468.392 115.206 495.072 154.985 447.003C137.761 452.887 126.939 455.764 108.76 455.896C61.2906 456.24 20.0467 428.915 4.67696 383.591C-2.04337 363.773 -3.12004 338.93 21.3398 331.31C28.351 328.981 36.68 328.512 43.3566 332.291C59.8545 341.627 59.0863 361.97 72.1284 375.152C88.7137 391.915 106.782 395.585 129.31 392.723C94.0824 358.468 74.06 311.526 73.722 262.398C73.5538 241.939 78.4025 208.078 88.8794 190.699C89.3929 190.124 89.926 189.757 89.9954 189.208L91.5727 189.485L92.2667 187.824L92.6365 187.953C91.936 190.7 90.8878 193.338 92.0128 195.885L93.0545 196.2C96.6859 207.546 105.152 214.833 117.536 211.433C122.444 210.044 126.608 206.778 129.123 202.342C135.702 190.7 129.034 181.253 118.728 175.368C118.588 168.675 117.822 145.768 119.582 140.643C125.217 135.164 131.792 128.409 137.989 123.79C164.324 147.618 245.753 128.538 269.222 102.991C280.242 90.9936 272.91 75.8551 270.776 61.887ZM208.441 348.123C259.605 337.693 248.848 257.826 201.642 261.031C152.875 268.295 156.761 349.61 208.441 348.123ZM358.925 347.964C409.008 340.588 401.405 257.688 352.031 261.103C315.741 265.428 306.622 319.852 333.924 340.555C341.019 345.936 350.003 348.953 358.925 347.964ZM355.954 212.92C359.911 218.593 367.428 220.514 373.622 217.432C379.816 214.351 382.817 207.198 380.676 200.622C378.535 194.046 371.896 190.03 365.075 191.184C366.45 191.516 368.015 191.847 369.308 192.158C378.776 194.433 377.291 208.965 369.97 213.082C363.364 216.796 363.146 211.08 355.954 212.92Z" fill="#8E4DE2"/>
<path d="M367.586 277.47C371.684 276.692 375.882 278.193 378.558 281.392C381.234 284.591 381.968 288.988 380.475 292.882C378.984 296.777 375.5 299.559 371.371 300.153C365.181 301.044 359.412 296.828 358.383 290.662C357.354 284.495 361.441 278.636 367.586 277.47Z" fill="#FDFDFC"/>
<path d="M217.821 277.466C223.951 276.773 229.527 281.063 230.427 287.163C231.329 293.265 227.23 298.982 221.16 300.088C217.047 300.838 212.852 299.286 210.218 296.04C207.584 292.794 206.931 288.37 208.514 284.502C210.098 280.633 213.666 277.936 217.821 277.466Z" fill="#FDFDFC"/>
<path d="M359.938 127.494C369.245 125.364 378.562 131.008 380.981 140.241C383.4 149.475 378.045 158.959 368.888 161.663C362.706 163.487 356.022 161.803 351.442 157.269C346.864 152.734 345.118 146.067 346.885 139.871C348.653 133.675 353.655 128.932 359.938 127.494Z" fill="#181717"/>
<path d="M406.968 162.528C416.243 160.31 425.549 166.073 427.694 175.361C429.84 184.65 424.003 193.908 414.696 195.98C405.489 198.03 396.352 192.273 394.229 183.086C392.107 173.899 397.795 164.72 406.968 162.528Z" fill="#181717"/>
<path d="M355.955 212.92C353.22 208.999 352.684 203.951 354.534 199.543C356.384 195.136 360.362 191.981 365.076 191.184C366.451 191.516 368.016 191.847 369.309 192.158C378.777 194.433 377.292 208.965 369.971 213.082C363.365 216.796 363.147 211.08 355.955 212.92Z" fill="#181717"/>
<path d="M365.076 191.185C371.897 190.031 378.535 194.047 380.677 200.624C382.818 207.2 379.817 214.353 373.623 217.434C367.429 220.515 359.911 218.595 355.955 212.922C363.147 211.082 363.365 216.798 369.97 213.084C377.292 208.966 378.777 194.434 369.308 192.16C368.016 191.849 366.451 191.517 365.076 191.185Z" fill="#181717" fill-opacity="0.862745"/>
<path d="M1105.79 175.933L1144.17 175.883L1144.08 372.369C1135.74 371.393 1114.36 371.865 1105.82 372.355L1105.98 360.696C1091.84 378.99 1063.14 379.463 1043.18 371.927C1037.46 369.451 1032.11 366.196 1027.28 362.256C982.109 324.935 1000.71 240.892 1062.97 236.251C1081.08 234.901 1092.3 239.328 1105.72 250.765C1106.95 230.268 1106.02 197.283 1105.79 175.933ZM1079.91 340.419C1098.63 336.624 1110.72 318.374 1106.92 299.66C1103.12 280.947 1084.85 268.861 1066.13 272.67C1047.43 276.476 1035.35 294.72 1039.14 313.423C1042.95 332.127 1061.19 344.212 1079.91 340.419Z" fill="#8E4DE2"/>
<path d="M690.031 235.008C721.572 230.068 755.239 252.251 763.746 282.709C770.09 305.438 768.473 330.744 754.709 350.386C744.918 364.228 729.993 373.577 713.263 376.347C695.349 379.363 680.292 375.588 665.613 364.962L665.56 376.502C665.71 394.299 665.692 412.098 665.506 429.895C652.733 429.745 639.957 429.741 627.184 429.882C628.602 399.295 626.348 367.083 627.225 336.299C627.632 322.028 626.16 308.032 628.615 293.841C634.241 261.315 657.624 239.505 690.031 235.008ZM702.473 341.52C749.04 331.113 732.84 263.591 692.507 271.608C674.306 274.896 666.541 287.1 664.569 304.903C662.257 325.777 680.99 346.062 702.473 341.52Z" fill="#8E4DE2"/>
<path d="M103.114 94.7181C94.9942 93.4148 80.7511 92.6443 74.6069 87.0897C72.9177 85.5619 72.1062 84.048 72.0678 81.7449C72.0066 78.1082 73.9252 75.5374 76.394 73.1323C89.2565 60.5989 155.474 10.3358 169.892 3.77411C175.153 1.3804 181.109 1.28981 186.805 1.34368C203.345 1.49956 296.208 8.97287 303.541 17.1913C304.712 18.5037 305.18 20.1498 305.054 21.8906C304.299 32.3232 283.622 46.1273 275.843 52.3584C261.545 63.8129 218.77 98.2854 204.322 102.071C186.761 106.673 140.314 99.1489 119.789 96.8964C119.26 107.854 120.611 132.242 119.582 140.644C117.822 145.769 118.587 168.675 118.728 175.368C129.034 181.253 135.702 190.7 129.123 202.342C126.608 206.779 122.444 210.045 117.536 211.433C105.152 214.834 96.6858 207.547 93.0544 196.2L92.0126 195.886C90.8876 193.339 91.9359 190.701 92.6364 187.954L92.2665 187.825L91.5726 189.486L89.9953 189.208C89.9259 189.757 89.3928 190.125 88.8793 190.699C92.3017 180.955 98.2459 170.345 104.187 161.913C105.204 159.138 103.165 102.645 103.114 94.7181Z" fill="#181717"/>
<path d="M88.8789 190.701C92.3013 180.956 98.2455 170.346 104.187 161.914C104.554 166.795 104.817 170.905 104.858 175.83C95.3334 181.946 93.8222 184.93 93.054 196.201L92.0123 195.887C90.8873 193.34 91.9355 190.702 92.636 187.955L92.2662 187.826L91.5722 189.487L89.9949 189.21C89.9255 189.759 89.3924 190.126 88.8789 190.701Z" fill="#8D3FEE"/>
<path d="M1425.42 236.486L1426.08 236.405C1445.43 234.139 1457.61 238.713 1472.34 250.523L1472.53 240.207L1510.59 240.067C1511.82 282.404 1510.56 329.446 1510.54 372.066C1499.06 371.682 1483.78 371.707 1472.44 372.372L1472.35 361.011L1467.56 365.306C1446.38 380.353 1421.79 380.304 1399.97 366.738C1367.01 346.249 1360.41 297.385 1380.56 265.863C1391.31 249.07 1406.27 240.676 1425.42 236.486ZM1448.49 340.609C1486.6 328.442 1479.66 266.133 1431.99 271.662C1411.4 278.173 1401.3 298.641 1408.06 319.01C1410.81 327.519 1416.87 334.563 1424.88 338.551C1432.53 342.319 1440.33 342.693 1448.49 340.609Z" fill="#8E4DE2"/>
<path d="M835.932 236.489L836.683 236.429C855.804 234.97 867.405 238.092 882.018 250.617L882.141 240.031L920.414 240.271L920.251 372.374C911.238 371.574 891.481 371.753 882.288 372.346L882.133 361.019C880.492 362.741 878.345 364.707 876.606 366.389C836.692 392.048 790.393 367.31 780.988 323.236C776.58 303.276 780.262 282.386 791.234 265.138C802.345 248.032 816.747 240.571 835.932 236.489ZM856.996 341.191C897.424 329.899 889.08 265.982 843.027 271.66C799.325 285.016 813.171 348.832 856.996 341.191Z" fill="#8E4DE2"/>
<path d="M1220.35 236.585C1223.42 235.969 1228.16 236.118 1231.35 236.174C1262.03 236.709 1286.91 258.615 1293.06 288.419C1295.22 298.858 1294.75 307.307 1294.28 317.925C1263.72 317.227 1229.62 317.714 1198.96 317.954C1204.21 341.084 1231.39 352.158 1249.22 334.384C1250.46 333.152 1252.08 330.79 1253.13 329.372L1289.23 329.77C1290.66 329.802 1290.81 329.952 1292.17 330.347L1292.54 331.716C1280.74 376.963 1222.6 389.262 1187.74 363.044C1173.23 351.951 1163.76 335.526 1161.43 317.418C1155.96 277.817 1179.58 241.831 1220.35 236.585ZM1199.86 289.52L1231.38 289.516L1255.92 289.485C1251.34 274.981 1240.62 267.683 1225.29 269.16C1211.83 271.634 1205.37 276.89 1199.86 289.52Z" fill="#8E4DE2"/>
<path d="M946.033 240.164C958.565 240.135 971.105 240.212 983.637 240.394C984.951 283.236 983.482 329.019 983.237 371.99C970.746 371.978 958.255 372.041 945.764 372.177C946.735 357.703 946.262 338.819 946.286 324.065C946.4 296.098 946.319 268.13 946.033 240.164Z" fill="#8E4DE2"/>
<path d="M1313.04 240.208L1350.56 240.166L1350.38 371.6C1346.35 372.553 1320.17 371.794 1312.68 372.39C1313.65 359.31 1313.08 339.154 1313.08 325.769L1313.04 240.208Z" fill="#8E4DE2"/>
<path d="M1326.91 174.412C1340.08 171.483 1353.13 179.818 1355.99 192.998C1358.87 206.179 1350.46 219.178 1337.27 221.986C1324.16 224.774 1311.26 216.446 1308.4 203.352C1305.55 190.258 1313.82 177.323 1326.91 174.412Z" fill="#8E4DE2"/>
<path d="M960.564 174.37C969.12 172.617 977.953 175.592 983.701 182.16C989.456 188.727 991.236 197.876 988.362 206.12C985.497 214.363 978.418 220.432 969.83 222.012C956.743 224.422 944.146 215.841 941.607 202.778C939.068 189.715 947.517 177.041 960.564 174.37Z" fill="#8E4DE2"/>
<path d="M1551.54 330.444C1563.67 327.036 1576.26 334.182 1579.55 346.348C1582.83 358.513 1575.56 371.023 1563.36 374.19C1551.32 377.313 1539.02 370.166 1535.78 358.169C1532.54 346.172 1539.57 333.803 1551.54 330.444Z" fill="#8E4DE2"/>
</g>
<defs>
<clipPath id="clip0_132_910">
<rect width="1579" height="542" fill="white" transform="translate(1)"/>
</clipPath>
</defs>
</svg>
