<svg width="1582" height="545" viewBox="0 0 1582 545" fill="none" xmlns="http://www.w3.org/2000/svg">
<g clip-path="url(#clip0_133_896)">
<path d="M270.893 64.6841C324.926 58.7165 370.43 71.4662 413.035 105.556C453.951 138.378 480.311 185.971 486.421 238.057C491.904 288.751 478.815 337.282 446.489 377.109C441.041 383.708 435.211 389.981 429.029 395.898C450.571 398.107 460.394 396.88 479.023 384.167C500.598 369.445 497.219 330.284 528.774 332.653C549.415 334.203 558.415 350.524 555.842 370.175C548.169 428.787 493.128 465.41 435.894 458.407C423.322 456.893 415.258 453.771 403.523 450.94C418.261 468.6 434.112 480.176 457.799 482.062C472.217 483.21 486.499 480.478 497.173 493.015C501.912 498.581 504.313 507.747 503.545 515.019C502.596 523.261 498.439 530.798 491.973 535.999C479.607 545.904 452.952 544.863 437.874 542.979C414.228 540.227 391.708 531.367 372.527 517.272C337.04 491.042 326.208 452.534 273.877 456.654C238.347 457.993 224.176 480.526 201.163 503.949C170.448 535.212 128.653 547.327 84.957 543.198C55.1802 540.384 42.2026 508.631 65.5624 488.023C73.0815 481.39 87.4437 482.932 96.4985 482.48C119.889 481.188 140.162 469.621 154.223 450.951C141.191 455.015 132.27 457.719 118.835 458.868C66.6891 463.548 19.0771 434.306 3.55278 383.677C-2.53476 363.823 -1.35979 340.509 22.1067 334.075C50.067 326.407 55.1704 348.805 64.5705 367.692C76.2492 391.159 104.338 399.838 129.46 396.244C92.4312 357.872 72.5851 313.173 73.7061 259.397C73.9771 246.392 78.6584 211.789 85.5186 202.037C88.7826 199.451 89.8636 194.363 91.7633 190.576C91.916 195.196 91.3102 198.676 92.6793 202.832C93.5113 203.58 93.735 204.067 94.6338 204.174C98.1035 209.323 101.532 212.805 107.707 214.551C112.414 215.915 117.474 215.294 121.711 212.832C128.67 208.771 130.201 203.255 132.028 196.169C129.975 186.799 127.524 182.656 118.766 178.384C118.652 172.709 117.858 147.664 119.489 143.802C125.288 138.243 131.805 131.706 137.931 126.661C161.135 150.7 244.47 131.386 267.129 108.199C281.378 93.6192 273.094 81.7796 270.893 64.6841ZM209.577 351.125C259.835 339.749 248.948 260.434 201.133 264.211C151.663 273.978 157.669 352.987 209.577 351.125ZM361.202 350.901C410.822 337.497 399.491 260.109 350.188 264.268C302.655 275.155 308.887 355.32 361.202 350.901ZM368.963 164.612C378.304 161.869 383.668 152.093 380.962 142.745C378.256 133.398 368.499 127.996 359.136 130.663C349.721 133.344 344.279 143.167 347.001 152.569C349.722 161.971 359.57 167.371 368.963 164.612ZM393.923 182.384C394.006 187.076 396.008 191.529 399.462 194.707C402.916 197.884 407.521 199.509 412.205 199.202C421.582 198.589 428.721 190.552 428.224 181.172C427.726 171.792 419.775 164.556 410.386 164.938C401.069 165.317 393.759 173.063 393.923 182.384ZM371.919 221.156C379.16 218.797 383.209 211.107 381.056 203.805C378.902 196.502 371.329 192.237 363.965 194.181C359.012 195.489 355.162 199.384 353.912 204.35C352.662 209.317 354.211 214.569 357.956 218.064C361.7 221.559 367.048 222.743 371.919 221.156Z" fill="#FEFEFD"/>
<path d="M216.25 280.619C220.301 279.537 224.62 280.717 227.556 283.708C230.493 286.699 231.592 291.039 230.434 295.066C229.275 299.094 226.038 302.187 221.96 303.162C215.771 304.643 209.54 300.876 207.978 294.707C206.415 288.54 210.101 282.262 216.25 280.619Z" fill="#FEFEFD"/>
<path d="M366.884 280.666C372.936 279.018 379.202 282.48 381.024 288.48C382.846 294.48 379.563 300.84 373.616 302.833C369.614 304.174 365.2 303.235 362.091 300.381C358.982 297.527 357.671 293.209 358.668 289.109C359.665 285.009 362.812 281.775 366.884 280.666Z" fill="#FEFEFD"/>
<path d="M1106.2 178.552L1144.97 178.461L1144.08 375.427L1106.28 375.502C1105.96 372.165 1105.99 368.106 1105.93 364.692C1101.17 369.322 1095.59 373.01 1089.47 375.565C1073.45 382.299 1057.01 380.561 1041.32 374.189C998.593 355.164 990.094 294.121 1020.35 260.32C1031.87 247.546 1047.97 239.832 1065.15 238.854C1082 237.99 1093.83 243.054 1106.01 253.974C1107.13 230.764 1105.64 202.686 1106.2 178.552ZM1075.08 344.07C1094.08 342.945 1108.6 326.693 1107.58 307.695C1106.56 288.698 1090.39 274.088 1071.38 274.996C1052.21 275.913 1037.45 292.241 1038.48 311.393C1039.51 330.545 1055.93 345.206 1075.08 344.07Z" fill="#FEFEFD"/>
<path d="M689.739 238C707.692 236.345 722.85 240.104 737.981 250.025C770.122 271.097 776.857 322.208 755.185 352.958C745.09 367.242 729.698 376.894 712.439 379.76C694.657 382.679 679.868 378.205 665.671 367.996L665.631 381.725C665.995 398.872 666.013 416.024 665.685 433.171C652.885 433.067 640.085 433.174 627.288 433.493C626.91 406.932 627.865 379.052 627.217 352.614C625.883 298.108 624.991 251.363 689.739 238ZM700.295 344.959C746.142 335.729 738.252 273.714 695.271 274.112C685.572 275.921 676.838 278.975 671.316 287.702C655.217 313.146 668.548 345.812 700.295 344.959Z" fill="#FEFEFD"/>
<path d="M103.894 97.6677C95.2085 95.749 81.0373 96.0412 74.262 90.0214C72.5492 88.4993 71.5221 86.8532 71.4258 84.5198C71.2731 80.8146 73.3746 78.012 75.8866 75.5612C88.9451 62.8238 105.229 51.8452 119.722 40.7213C132.644 30.8021 158.048 9.53121 171.816 3.14987C175.874 1.26869 180.277 1.1838 184.687 1.28255C207.922 1.79998 239.445 7.02487 263.036 10.4387C274.161 12.049 286.693 13.0079 297.476 16.1484C299.806 16.8266 302.189 17.9684 303.796 19.8349C305.126 21.3798 305.839 23.2994 305.631 25.3405C304.526 36.1583 265.401 63.7052 256.087 70.9427C242.887 81.2015 223.835 97.8481 209.269 104.35C204.708 106.385 199.811 107.558 194.824 107.812C186.128 108.293 172.039 106.324 163.018 105.223L119.593 99.8427C119.457 106.801 120.336 140.116 119.489 143.803C117.858 147.666 118.652 172.71 118.766 178.386C127.524 182.657 129.975 186.801 132.028 196.171C130.201 203.256 128.67 208.772 121.711 212.833C117.474 215.295 112.413 215.916 107.707 214.552C101.532 212.807 98.1035 209.324 94.6338 204.175C93.7349 204.068 93.5112 203.581 92.6793 202.833C91.3102 198.677 91.916 195.197 91.7633 190.577C89.8635 194.364 88.7826 199.452 85.5186 202.039C88.3189 190.9 97.8431 173.703 104.486 164.36C105.098 162.527 103.925 104.242 103.894 97.6677Z" fill="#1A1919"/>
<path d="M104.485 164.359C104.675 169.225 104.78 174.093 104.798 178.963C91.999 186.392 92.9901 191.16 94.6327 204.175C93.7339 204.068 93.5102 203.581 92.6783 202.833C91.3092 198.677 91.9149 195.197 91.7623 190.577C89.8625 194.364 88.7816 199.452 85.5176 202.039C88.3179 190.9 97.842 173.702 104.485 164.359Z" fill="#EFECED"/>
<path d="M1429.86 239.017C1448.42 238.036 1459.05 241.995 1473.15 253.668L1473.32 242.856L1512.07 242.847C1510.79 285.099 1511.38 333.077 1511.76 375.431L1473.35 375.405L1473.08 364.257L1467.23 369.518C1459.61 374.485 1451.89 377.969 1442.77 379.239C1426.39 381.46 1409.78 377.059 1396.65 367.01C1349.81 331.247 1365.22 246.92 1429.86 239.017ZM1441.17 345.199C1488.26 337.83 1480.76 275.534 1440.47 274.083C1396.03 277.239 1394.57 341.602 1441.17 345.199Z" fill="#FEFEFD"/>
<path d="M840.128 239.028C859.297 238.822 867.306 241.626 882.108 253.531L882.475 242.872C895.334 242.947 908.192 242.93 921.05 242.82C919.899 259.651 920.503 282.023 920.495 299.156C920.487 324.161 920.046 350.576 920.797 375.488L882.361 375.536C882.189 371.999 882.165 368.245 882.083 364.686C879.863 366.761 877.209 368.884 874.85 370.849C866.906 375.229 861.11 378.045 851.786 379.292C835.54 381.45 819.097 377.064 806.084 367.098C791.217 355.617 782.171 337.762 779.861 319.29C777.183 299.323 782.58 279.112 794.867 263.138C806.533 248.185 821.873 241.298 840.128 239.028ZM851.672 345.169C856.897 344.224 860.44 343.757 865.192 341.223C887.855 329.138 888.868 293.218 867.47 279.357C861.918 275.791 855.428 273.937 848.831 274.029C845.778 274.48 842.422 274.912 839.475 275.856C813.162 284.28 808.574 322.97 830.601 338.657C837.271 343.405 843.598 344.794 851.672 345.169Z" fill="#FEFEFD"/>
<path d="M1224.62 239.025C1228.69 238.835 1232.75 238.948 1236.8 239.364C1253.78 241.157 1269.37 249.56 1280.2 262.756C1293.94 279.732 1297 299.852 1294.77 321.022L1199.05 321.005C1206.37 347.585 1237.19 355.953 1253.7 332.154C1266.9 332.284 1280.09 332.586 1293.27 333.061C1292.74 339.952 1287.89 349.474 1283.83 354.774C1261.57 383.808 1215.82 387.536 1187.6 365.853C1172.98 354.506 1163.56 337.74 1161.47 319.354C1156.32 276.713 1182.03 243.961 1224.62 239.025ZM1200.56 292.548L1232.08 292.597L1256.43 292.544C1250.94 276.686 1240.95 271.1 1224.21 272.286C1211.27 276.117 1205.84 279.565 1200.56 292.548Z" fill="#FEFEFD"/>
<path d="M945.999 242.82L984.052 242.879C983.129 279.845 984.664 317.198 983.562 354.201C983.374 360.407 984.476 368.678 983.26 374.479L981.758 375.27C969.895 375.511 958.033 375.566 946.179 375.434C945.076 332.889 946.072 285.768 945.999 242.82Z" fill="#FEFEFD"/>
<path d="M1313.47 242.909L1351.46 242.877C1350.51 285.191 1350.98 332.667 1350.99 375.328C1339.77 374.858 1325.56 375.473 1313.74 375.294C1312.97 331.382 1314.09 286.937 1313.47 242.909Z" fill="#FEFEFD"/>
<path d="M1326.49 177.599C1339.56 174.106 1352.97 181.894 1356.4 194.965C1359.83 208.037 1351.97 221.406 1338.89 224.776C1325.88 228.123 1312.61 220.335 1309.2 207.351C1305.8 194.366 1313.52 181.068 1326.49 177.599Z" fill="#FEFEFD"/>
<path d="M959.413 177.622C967.928 175.436 976.957 178.015 983.031 184.367C989.105 190.719 991.277 199.854 988.705 208.256C986.142 216.659 979.227 223.021 970.646 224.893C957.698 227.716 944.872 219.655 941.819 206.767C938.758 193.88 946.587 180.918 959.413 177.622Z" fill="#FEFEFD"/>
<path d="M1555.74 332.805C1568.15 331.281 1579.47 340.042 1581.11 352.436C1582.74 364.829 1574.08 376.225 1561.7 377.97C1549.16 379.737 1537.58 370.943 1535.93 358.391C1534.27 345.84 1543.17 334.347 1555.74 332.805Z" fill="#FEFEFD"/>
</g>
<defs>
<clipPath id="clip0_133_896">
<rect width="1581" height="544" fill="white" transform="translate(0 1)"/>
</clipPath>
</defs>
</svg>
